<svg xmlns="http://www.w3.org/2000/svg" width="1482.92" height="413.08" xmlns:xlink="http://www.w3.org/1999/xlink" viewBox="0 0 1482.92 413.08">
				<defs>
					<linearGradient id="Unbenannter_Verlauf_8" data-name="Unbenannter Verlauf 8" x1="-3456.62" y1="-868.15" x2="-3450.41" y2="-797.15" gradientTransform="translate(3219.68 -1624.35) rotate(-45)" gradientUnits="userSpaceOnUse">
						<stop offset=".05" stop-color="#002853"/>
						<stop offset=".1" stop-color="#003a6a"/>
						<stop offset=".2" stop-color="#00578f"/>
						<stop offset=".3" stop-color="#0070ae"/>
						<stop offset=".41" stop-color="#0083c5"/>
						<stop offset=".52" stop-color="#0090d6"/>
						<stop offset=".65" stop-color="#0098e0"/>
						<stop offset=".8" stop-color="#009be4"/>
					</linearGradient>
				</defs>
				<g id="Wortmarke_blau">
					<g>
						<path d="M384.97,214.47c3.87,4.88,5.8,10.48,5.8,16.79,0,5.7-1.4,10.71-4.2,15.03-2.8,4.33-6.84,7.71-12.13,10.15-5.29,2.44-11.55,3.66-18.77,3.66h-45.94v-106.54h43.96c7.22,0,13.46,1.17,18.7,3.51,5.24,2.34,9.21,5.6,11.91,9.77,2.69,4.17,4.04,8.91,4.04,14.19,0,6.21-1.65,11.4-4.96,15.57-3.31,4.17-7.71,7.12-13.2,8.85,6,1.12,10.94,4.12,14.81,9.01Zm-53.88-16.94h19.54c5.09,0,9.01-1.14,11.75-3.43,2.75-2.29,4.12-5.57,4.12-9.84s-1.37-7.58-4.12-9.92c-2.75-2.34-6.67-3.51-11.75-3.51h-19.54v26.71Zm33.66,41.52c2.9-2.44,4.35-5.9,4.35-10.38s-1.53-8.17-4.58-10.76c-3.05-2.59-7.17-3.89-12.36-3.89h-21.06v28.69h21.52c5.19,0,9.23-1.22,12.13-3.66Z" fill="#00214a"/>
						<path d="M409.31,161.89c-2.5-2.39-3.74-5.37-3.74-8.93s1.25-6.54,3.74-8.93c2.49-2.39,5.62-3.59,9.39-3.59s6.89,1.2,9.39,3.59c2.49,2.39,3.74,5.37,3.74,8.93s-1.25,6.54-3.74,8.93c-2.49,2.39-5.62,3.59-9.39,3.59s-6.89-1.19-9.39-3.59Zm19.92,13.66v84.56h-21.37v-84.56h21.37Z" fill="#00214a"/>
						<path d="M464.03,257.74c-5.49-2.49-9.84-5.88-13.05-10.15-3.21-4.27-4.96-9.01-5.27-14.2h21.52c.41,3.26,2.01,5.95,4.81,8.09,2.8,2.14,6.28,3.21,10.46,3.21s7.25-.81,9.54-2.44c2.29-1.63,3.43-3.71,3.43-6.26,0-2.75-1.4-4.81-4.2-6.18-2.8-1.37-7.25-2.87-13.36-4.5-6.31-1.53-11.47-3.1-15.49-4.73-4.02-1.63-7.48-4.12-10.38-7.48-2.9-3.36-4.35-7.88-4.35-13.58,0-4.68,1.35-8.95,4.05-12.82,2.69-3.87,6.56-6.92,11.6-9.16,5.04-2.24,10.96-3.36,17.78-3.36,10.07,0,18.11,2.52,24.12,7.56,6,5.04,9.31,11.83,9.92,20.38h-20.45c-.31-3.36-1.71-6.03-4.2-8.01-2.49-1.98-5.83-2.98-10-2.98-3.87,0-6.84,.71-8.93,2.14-2.09,1.43-3.13,3.41-3.13,5.95,0,2.85,1.42,5.01,4.27,6.49,2.85,1.48,7.27,2.98,13.28,4.5,6.11,1.53,11.14,3.1,15.11,4.73,3.97,1.63,7.4,4.15,10.3,7.56,2.9,3.41,4.4,7.91,4.5,13.51,0,4.88-1.35,9.26-4.04,13.13-2.7,3.87-6.56,6.89-11.6,9.08-5.04,2.19-10.91,3.28-17.63,3.28s-13.13-1.25-18.62-3.74Z" fill="#00214a"/>
						<path d="M533.33,194.86c3.56-6.56,8.5-11.65,14.81-15.26,6.31-3.61,13.53-5.42,21.67-5.42,10.48,0,19.16,2.62,26.02,7.86,6.87,5.24,11.47,12.59,13.81,22.06h-23.05c-1.22-3.66-3.28-6.54-6.18-8.62-2.9-2.08-6.49-3.13-10.76-3.13-6.11,0-10.94,2.21-14.5,6.64-3.56,4.43-5.34,10.71-5.34,18.85s1.78,14.27,5.34,18.7c3.56,4.43,8.39,6.64,14.5,6.64,8.65,0,14.29-3.87,16.94-11.6h23.05c-2.34,9.16-6.97,16.43-13.89,21.83-6.92,5.39-15.57,8.09-25.95,8.09-8.14,0-15.37-1.81-21.67-5.42-6.31-3.61-11.24-8.7-14.81-15.26-3.56-6.56-5.34-14.22-5.34-22.97s1.78-16.41,5.34-22.97Z" fill="#00214a"/>
						<path d="M690.08,178.53c4.98,2.8,8.88,6.92,11.68,12.36,2.8,5.44,4.2,11.98,4.2,19.61v49.61h-21.37v-46.71c0-6.72-1.68-11.88-5.04-15.49-3.36-3.61-7.94-5.42-13.74-5.42s-10.56,1.81-13.97,5.42c-3.41,3.61-5.11,8.78-5.11,15.49v46.71h-21.37v-112.95h21.37v38.92c2.75-3.66,6.41-6.54,10.99-8.62,4.58-2.08,9.67-3.13,15.26-3.13,6.41,0,12.11,1.4,17.09,4.2Z" fill="#00214a"/>
						<path d="M741.83,256.06c-6.51-3.61-11.63-8.72-15.34-15.34-3.72-6.61-5.57-14.25-5.57-22.9s1.91-16.28,5.72-22.9c3.82-6.61,9.03-11.73,15.65-15.34,6.61-3.61,13.99-5.42,22.13-5.42s15.52,1.81,22.13,5.42c6.61,3.61,11.83,8.73,15.65,15.34,3.82,6.62,5.72,14.25,5.72,22.9s-1.96,16.28-5.88,22.9c-3.92,6.62-9.21,11.73-15.87,15.34-6.67,3.61-14.12,5.42-22.36,5.42s-15.47-1.81-21.98-5.42Zm32.89-16.03c3.41-1.88,6.13-4.71,8.17-8.47,2.03-3.76,3.05-8.34,3.05-13.74,0-8.04-2.11-14.22-6.33-18.55-4.22-4.32-9.39-6.49-15.49-6.49s-11.22,2.16-15.34,6.49c-4.12,4.33-6.18,10.51-6.18,18.55s2.01,14.22,6.03,18.54c4.02,4.33,9.08,6.49,15.19,6.49,3.87,0,7.5-.94,10.91-2.82Z" fill="#00214a"/>
						<path d="M862.4,193.1h-14.81v67.01h-21.67v-67.01h-9.62v-17.55h9.62v-4.27c0-10.38,2.95-18.01,8.85-22.9,5.9-4.88,14.81-7.17,26.71-6.87v18.01c-5.19-.1-8.8,.76-10.84,2.6-2.04,1.83-3.05,5.14-3.05,9.92v3.51h14.81v17.55Z" fill="#00214a"/>
						<path d="M956.12,215.08h-28.85v29.61h-20.15v-29.61h-28.85v-18.62h28.85v-29.61h20.15v29.61h28.85v18.62Z" fill="#00214a"/>
						<path d="M1039.31,260.11l-38.77-47.47v47.47h-21.37v-106.54h21.37v47.77l38.77-47.77h25.79l-43.96,52.81,45.18,53.73h-27.02Z" fill="#00214a"/>
						<path d="M1101.73,147.16v112.95h-21.37v-112.95h21.37Z" fill="#00214a"/>
						<path d="M1200.79,224.24h-61.82c.51,6.11,2.65,10.89,6.41,14.35,3.76,3.46,8.39,5.19,13.89,5.19,7.94,0,13.58-3.41,16.94-10.23h23.05c-2.44,8.14-7.12,14.83-14.04,20.07-6.92,5.24-15.42,7.86-25.49,7.86-8.14,0-15.44-1.81-21.9-5.42-6.46-3.61-11.5-8.72-15.11-15.34-3.61-6.61-5.42-14.25-5.42-22.9s1.78-16.43,5.34-23.05c3.56-6.61,8.55-11.7,14.96-15.26,6.41-3.56,13.79-5.34,22.13-5.34s15.24,1.73,21.6,5.19c6.36,3.46,11.29,8.37,14.81,14.73,3.51,6.36,5.27,13.66,5.27,21.9,0,3.05-.2,5.8-.61,8.24Zm-21.52-14.35c-.1-5.49-2.09-9.89-5.95-13.2-3.87-3.31-8.6-4.96-14.2-4.96-5.29,0-9.74,1.6-13.36,4.81-3.61,3.21-5.83,7.66-6.64,13.36h40.14Z" fill="#00214a"/>
						<path d="M1218.42,161.89c-2.5-2.39-3.74-5.37-3.74-8.93s1.25-6.54,3.74-8.93c2.49-2.39,5.62-3.59,9.39-3.59s6.89,1.2,9.39,3.59c2.49,2.39,3.74,5.37,3.74,8.93s-1.25,6.54-3.74,8.93c-2.49,2.39-5.62,3.59-9.39,3.59s-6.89-1.19-9.39-3.59Zm19.92,13.66v84.56h-21.37v-84.56h21.37Z" fill="#00214a"/>
						<path d="M1330.68,183.87c6.2,6.36,9.31,15.24,9.31,26.63v49.61h-21.37v-46.71c0-6.72-1.68-11.88-5.04-15.49-3.36-3.61-7.94-5.42-13.74-5.42s-10.56,1.81-13.97,5.42c-3.41,3.61-5.11,8.78-5.11,15.49v46.71h-21.37v-84.56h21.37v10.53c2.85-3.66,6.49-6.54,10.91-8.62,4.43-2.08,9.28-3.13,14.58-3.13,10.07,0,18.21,3.18,24.42,9.54Z" fill="#00214a"/>
					</g>
					<path d="M1369.56,148.63c2.18,1.26,3.89,2.99,5.13,5.2,1.23,2.21,1.85,4.69,1.85,7.44s-.62,5.25-1.85,7.48c-1.24,2.23-2.94,3.98-5.13,5.24-2.18,1.26-4.65,1.89-7.41,1.89s-5.3-.63-7.48-1.89c-2.18-1.26-3.89-3-5.13-5.24-1.24-2.23-1.85-4.72-1.85-7.48s.62-5.24,1.85-7.44c1.23-2.21,2.94-3.94,5.13-5.2,2.18-1.26,4.68-1.89,7.48-1.89s5.22,.63,7.41,1.89Zm.89,21.12c2.11-2.18,3.17-5.01,3.17-8.48s-1.06-6.29-3.17-8.48c-2.11-2.18-4.88-3.28-8.3-3.28s-6.23,1.09-8.3,3.28c-2.07,2.19-3.1,5.01-3.1,8.48s1.03,6.29,3.1,8.48c2.07,2.18,4.83,3.28,8.3,3.28s6.18-1.09,8.3-3.28Zm-2.78-8.58c-.59,.78-1.41,1.34-2.46,1.67l3.99,5.91-4.49,.07-3.42-5.7h-1.21v5.7h-3.7v-15.31h6.84c1.61,0,2.91,.43,3.88,1.28,.97,.85,1.46,2.02,1.46,3.49,0,1.14-.3,2.1-.89,2.88Zm-7.59-1.1h2.92c.52,0,.96-.14,1.32-.43s.53-.69,.53-1.21-.18-.91-.53-1.18c-.36-.26-.8-.39-1.32-.39h-2.92v3.21Z" fill="#00214a"/>
				</g>
				<g id="Verlauf_blau">
					<g>
						<path d="M195.04,108.23s-45.15,45.15-69.09,69.09c-51.55,51.55,15.85,97.48,15.85,97.48-10.37-15.91-11.46-35.02,7.48-53.66l79.34-79.34c2.28-2.28,2.25-6.03-.06-8.34l-25.18-25.18c-2.31-2.31-6.06-2.34-8.34-.06Z" fill="#009be4"/>
						<path d="M149.29,221.15c-18.95,18.64-17.85,37.75-7.48,53.66h0s0,0,0,0c10.41,16.09,30.95,28.76,30.95,28.76,0-.02,.01-.03,.02-.05-1.02-.65-1.98-1.41-2.85-2.28-9.27-9.27-9.38-24.2-.24-33.34l55.86-55.85h0s15.78-15.79,15.78-15.79c2.28-2.28,2.25-6.03-.06-8.34l-29.38-29.38-62.61,62.61Z" fill="url(#Unbenannter_Verlauf_8)"/>
						<path d="M225.55,212.04l29.38,29.38c2.31,2.31,2.34,6.06,.06,8.34l-46.32,46.32c-10.8,10.8-29.47,14.44-38.75,5.17s-9.38-24.2-.24-33.34l55.87-55.86Z" fill="#00214a"/>
					</g>
				</g>
			</svg>