<?xml version="1.0" encoding="utf-8"?>
<!-- Generator: Adobe Illustrator 27.5.0, SVG Export Plug-In . SVG Version: 6.00 Build 0)  -->
<svg version="1.1" id="Ebene_1" xmlns="http://www.w3.org/2000/svg" xmlns:xlink="http://www.w3.org/1999/xlink" x="0px" y="0px"
	 viewBox="0 0 339.2 95" enable-background="new 0 0 339.2 95" xml:space="preserve">
<g>
	<linearGradient id="SVGID_1_" gradientUnits="userSpaceOnUse" x1="-9.7424" y1="89.5221" x2="345.8548" y2="-18.6646">
		<stop  offset="0" style="stop-color:#B3B3B3"/>
		<stop  offset="0.1662" style="stop-color:#FFFFFF"/>
		<stop  offset="0.3464" style="stop-color:#B3B3B3"/>
		<stop  offset="0.5429" style="stop-color:#FFFFFF"/>
		<stop  offset="0.5903" style="stop-color:#E5E5E5"/>
		<stop  offset="0.6749" style="stop-color:#BCBCBC"/>
		<stop  offset="0.7417" style="stop-color:#A2A2A2"/>
		<stop  offset="0.7819" style="stop-color:#999999"/>
		<stop  offset="0.8108" style="stop-color:#A4A4A4"/>
		<stop  offset="0.8622" style="stop-color:#C3C3C3"/>
		<stop  offset="0.9297" style="stop-color:#F3F3F3"/>
		<stop  offset="0.9445" style="stop-color:#FFFFFF"/>
	</linearGradient>
	<path fill="url(#SVGID_1_)" d="M0,77.9h9.8c0.8,0,1.7,0.1,2.4,0.2c0.8,0.1,1.5,0.4,2.1,0.7c0.6,0.4,1.1,0.8,1.4,1.5
		c0.4,0.6,0.5,1.4,0.5,2.4c0,1-0.2,1.8-0.5,2.4c-0.4,0.6-0.8,1.1-1.4,1.5c-0.6,0.4-1.3,0.6-2.1,0.7s-1.6,0.2-2.4,0.2H2v7.1H0V77.9z
		 M2,85.7h7.2c1.7,0,2.9-0.2,3.8-0.6c0.8-0.4,1.3-1.2,1.3-2.3c0-1.1-0.4-1.9-1.3-2.4c-0.8-0.4-2.1-0.6-3.8-0.6H2V85.7z"/>
	
		<linearGradient id="SVGID_00000027563173007843266420000005503616354969246350_" gradientUnits="userSpaceOnUse" x1="-7.2471" y1="97.7236" x2="348.3501" y2="-10.463">
		<stop  offset="0" style="stop-color:#B3B3B3"/>
		<stop  offset="0.1662" style="stop-color:#FFFFFF"/>
		<stop  offset="0.3464" style="stop-color:#B3B3B3"/>
		<stop  offset="0.5429" style="stop-color:#FFFFFF"/>
		<stop  offset="0.5903" style="stop-color:#E5E5E5"/>
		<stop  offset="0.6749" style="stop-color:#BCBCBC"/>
		<stop  offset="0.7417" style="stop-color:#A2A2A2"/>
		<stop  offset="0.7819" style="stop-color:#999999"/>
		<stop  offset="0.8108" style="stop-color:#A4A4A4"/>
		<stop  offset="0.8622" style="stop-color:#C3C3C3"/>
		<stop  offset="0.9297" style="stop-color:#F3F3F3"/>
		<stop  offset="0.9445" style="stop-color:#FFFFFF"/>
	</linearGradient>
	<path fill="url(#SVGID_00000027563173007843266420000005503616354969246350_)" d="M22.2,77.9h9.6c0.7,0,1.4,0,2.1,0.1
		c0.8,0.1,1.5,0.3,2.1,0.6c0.7,0.3,1.2,0.8,1.6,1.4c0.4,0.6,0.7,1.4,0.7,2.5c0,0.9-0.2,1.6-0.5,2.2c-0.4,0.6-0.8,1-1.3,1.4
		c-0.5,0.3-1.1,0.6-1.7,0.8c-0.6,0.2-1.2,0.2-1.7,0.3l5.5,7.4h-2.5l-5.4-7.4h-6.6v7.4h-2V77.9z M24.3,85.4h7.2c0.7,0,1.4,0,2-0.1
		c0.6-0.1,1.2-0.2,1.6-0.4c0.5-0.2,0.8-0.5,1.1-0.9s0.4-0.9,0.4-1.5c0-0.6-0.1-1.1-0.4-1.5c-0.3-0.4-0.6-0.7-1.1-0.9
		c-0.5-0.2-1-0.3-1.6-0.4c-0.6-0.1-1.3-0.1-2-0.1h-7.2V85.4z"/>
	
		<linearGradient id="SVGID_00000090997955939345542910000005675028179501369274_" gradientUnits="userSpaceOnUse" x1="-5.8648" y1="102.2673" x2="349.7324" y2="-5.9194">
		<stop  offset="0" style="stop-color:#B3B3B3"/>
		<stop  offset="0.1662" style="stop-color:#FFFFFF"/>
		<stop  offset="0.3464" style="stop-color:#B3B3B3"/>
		<stop  offset="0.5429" style="stop-color:#FFFFFF"/>
		<stop  offset="0.5903" style="stop-color:#E5E5E5"/>
		<stop  offset="0.6749" style="stop-color:#BCBCBC"/>
		<stop  offset="0.7417" style="stop-color:#A2A2A2"/>
		<stop  offset="0.7819" style="stop-color:#999999"/>
		<stop  offset="0.8108" style="stop-color:#A4A4A4"/>
		<stop  offset="0.8622" style="stop-color:#C3C3C3"/>
		<stop  offset="0.9297" style="stop-color:#F3F3F3"/>
		<stop  offset="0.9445" style="stop-color:#FFFFFF"/>
	</linearGradient>
	<path fill="url(#SVGID_00000090997955939345542910000005675028179501369274_)" d="M45.8,77.9h2v16.7h-2V77.9z"/>
	
		<linearGradient id="SVGID_00000147942365154228085650000012854511545316271295_" gradientUnits="userSpaceOnUse" x1="-4.8861" y1="105.4839" x2="350.7111" y2="-2.7027">
		<stop  offset="0" style="stop-color:#B3B3B3"/>
		<stop  offset="0.1662" style="stop-color:#FFFFFF"/>
		<stop  offset="0.3464" style="stop-color:#B3B3B3"/>
		<stop  offset="0.5429" style="stop-color:#FFFFFF"/>
		<stop  offset="0.5903" style="stop-color:#E5E5E5"/>
		<stop  offset="0.6749" style="stop-color:#BCBCBC"/>
		<stop  offset="0.7417" style="stop-color:#A2A2A2"/>
		<stop  offset="0.7819" style="stop-color:#999999"/>
		<stop  offset="0.8108" style="stop-color:#A4A4A4"/>
		<stop  offset="0.8622" style="stop-color:#C3C3C3"/>
		<stop  offset="0.9297" style="stop-color:#F3F3F3"/>
		<stop  offset="0.9445" style="stop-color:#FFFFFF"/>
	</linearGradient>
	<path fill="url(#SVGID_00000147942365154228085650000012854511545316271295_)" d="M55.3,77.9l7.4,14.5L70,77.9h2.2l-8.6,16.7h-2
		L53,77.9H55.3z"/>
	
		<linearGradient id="SVGID_00000005948090649588268380000009466925011179183502_" gradientUnits="userSpaceOnUse" x1="-2.3617" y1="113.7814" x2="353.2355" y2="5.5947">
		<stop  offset="0" style="stop-color:#B3B3B3"/>
		<stop  offset="0.1662" style="stop-color:#FFFFFF"/>
		<stop  offset="0.3464" style="stop-color:#B3B3B3"/>
		<stop  offset="0.5429" style="stop-color:#FFFFFF"/>
		<stop  offset="0.5903" style="stop-color:#E5E5E5"/>
		<stop  offset="0.6749" style="stop-color:#BCBCBC"/>
		<stop  offset="0.7417" style="stop-color:#A2A2A2"/>
		<stop  offset="0.7819" style="stop-color:#999999"/>
		<stop  offset="0.8108" style="stop-color:#A4A4A4"/>
		<stop  offset="0.8622" style="stop-color:#C3C3C3"/>
		<stop  offset="0.9297" style="stop-color:#F3F3F3"/>
		<stop  offset="0.9445" style="stop-color:#FFFFFF"/>
	</linearGradient>
	<path fill="url(#SVGID_00000005948090649588268380000009466925011179183502_)" d="M82.6,77.9h2.5l8.6,16.7h-2.3l-2.2-4.3H78.4
		l-2.2,4.3H74L82.6,77.9z M88.3,88.5l-4.5-9l-4.5,9H88.3z"/>
	
		<linearGradient id="SVGID_00000129890089133269841810000017420804192220759468_" gradientUnits="userSpaceOnUse" x1="-1.3714" y1="117.0365" x2="354.2258" y2="8.8498">
		<stop  offset="0" style="stop-color:#B3B3B3"/>
		<stop  offset="0.1662" style="stop-color:#FFFFFF"/>
		<stop  offset="0.3464" style="stop-color:#B3B3B3"/>
		<stop  offset="0.5429" style="stop-color:#FFFFFF"/>
		<stop  offset="0.5903" style="stop-color:#E5E5E5"/>
		<stop  offset="0.6749" style="stop-color:#BCBCBC"/>
		<stop  offset="0.7417" style="stop-color:#A2A2A2"/>
		<stop  offset="0.7819" style="stop-color:#999999"/>
		<stop  offset="0.8108" style="stop-color:#A4A4A4"/>
		<stop  offset="0.8622" style="stop-color:#C3C3C3"/>
		<stop  offset="0.9297" style="stop-color:#F3F3F3"/>
		<stop  offset="0.9445" style="stop-color:#FFFFFF"/>
	</linearGradient>
	<path fill="url(#SVGID_00000129890089133269841810000017420804192220759468_)" d="M102.8,79.7h-8.1v-1.8h18.1v1.8h-8.1v14.9h-2
		V79.7z"/>
	
		<linearGradient id="SVGID_00000055677438859501164160000007485458116126539167_" gradientUnits="userSpaceOnUse" x1="0.8709" y1="124.4066" x2="356.4681" y2="16.2199">
		<stop  offset="0" style="stop-color:#B3B3B3"/>
		<stop  offset="0.1662" style="stop-color:#FFFFFF"/>
		<stop  offset="0.3464" style="stop-color:#B3B3B3"/>
		<stop  offset="0.5429" style="stop-color:#FFFFFF"/>
		<stop  offset="0.5903" style="stop-color:#E5E5E5"/>
		<stop  offset="0.6749" style="stop-color:#BCBCBC"/>
		<stop  offset="0.7417" style="stop-color:#A2A2A2"/>
		<stop  offset="0.7819" style="stop-color:#999999"/>
		<stop  offset="0.8108" style="stop-color:#A4A4A4"/>
		<stop  offset="0.8622" style="stop-color:#C3C3C3"/>
		<stop  offset="0.9297" style="stop-color:#F3F3F3"/>
		<stop  offset="0.9445" style="stop-color:#FFFFFF"/>
	</linearGradient>
	<path fill="url(#SVGID_00000055677438859501164160000007485458116126539167_)" d="M118.7,77.9h14.9v1.8h-12.9V85h10.7v1.8h-10.7v6
		h13.1v1.8h-15.2V77.9z"/>
	
		<linearGradient id="SVGID_00000147902329789978406790000015206218734820318368_" gradientUnits="userSpaceOnUse" x1="3.5527" y1="133.2214" x2="359.1499" y2="25.0347">
		<stop  offset="0" style="stop-color:#B3B3B3"/>
		<stop  offset="0.1662" style="stop-color:#FFFFFF"/>
		<stop  offset="0.3464" style="stop-color:#B3B3B3"/>
		<stop  offset="0.5429" style="stop-color:#FFFFFF"/>
		<stop  offset="0.5903" style="stop-color:#E5E5E5"/>
		<stop  offset="0.6749" style="stop-color:#BCBCBC"/>
		<stop  offset="0.7417" style="stop-color:#A2A2A2"/>
		<stop  offset="0.7819" style="stop-color:#999999"/>
		<stop  offset="0.8108" style="stop-color:#A4A4A4"/>
		<stop  offset="0.8622" style="stop-color:#C3C3C3"/>
		<stop  offset="0.9297" style="stop-color:#F3F3F3"/>
		<stop  offset="0.9445" style="stop-color:#FFFFFF"/>
	</linearGradient>
	<path fill="url(#SVGID_00000147902329789978406790000015206218734820318368_)" d="M160.8,77.9v10.8c0,1.3-0.2,2.3-0.6,3.1
		c-0.4,0.8-0.9,1.5-1.5,1.9c-0.6,0.5-1.3,0.8-2,1c-0.7,0.2-1.4,0.3-2.1,0.3c-0.9,0-1.7-0.1-2.3-0.4c-0.6-0.2-1.2-0.5-1.6-0.9
		c-0.4-0.4-0.8-0.7-1-1.2c-0.2-0.4-0.4-0.8-0.6-1.2l1.8-0.9c0.1,0.2,0.2,0.5,0.4,0.8c0.2,0.3,0.4,0.6,0.7,0.9
		c0.3,0.3,0.7,0.5,1.1,0.7c0.5,0.2,1,0.3,1.7,0.3c1.2,0,2.2-0.4,2.9-1.2c0.7-0.8,1.1-1.9,1.1-3.2V77.9H160.8z"/>
	
		<linearGradient id="SVGID_00000024707651232694455660000003947681130679347103_" gradientUnits="userSpaceOnUse" x1="5.0695" y1="138.207" x2="360.6667" y2="30.0203">
		<stop  offset="0" style="stop-color:#B3B3B3"/>
		<stop  offset="0.1662" style="stop-color:#FFFFFF"/>
		<stop  offset="0.3464" style="stop-color:#B3B3B3"/>
		<stop  offset="0.5429" style="stop-color:#FFFFFF"/>
		<stop  offset="0.5903" style="stop-color:#E5E5E5"/>
		<stop  offset="0.6749" style="stop-color:#BCBCBC"/>
		<stop  offset="0.7417" style="stop-color:#A2A2A2"/>
		<stop  offset="0.7819" style="stop-color:#999999"/>
		<stop  offset="0.8108" style="stop-color:#A4A4A4"/>
		<stop  offset="0.8622" style="stop-color:#C3C3C3"/>
		<stop  offset="0.9297" style="stop-color:#F3F3F3"/>
		<stop  offset="0.9445" style="stop-color:#FFFFFF"/>
	</linearGradient>
	<path fill="url(#SVGID_00000024707651232694455660000003947681130679347103_)" d="M168.3,77.9h14.9v1.8h-12.9V85H181v1.8h-10.7v6
		h13.1v1.8h-15.2V77.9z"/>
	
		<linearGradient id="SVGID_00000119080446785382526300000016707798410890224291_" gradientUnits="userSpaceOnUse" x1="6.4888" y1="142.8721" x2="362.086" y2="34.6854">
		<stop  offset="0" style="stop-color:#B3B3B3"/>
		<stop  offset="0.1662" style="stop-color:#FFFFFF"/>
		<stop  offset="0.3464" style="stop-color:#B3B3B3"/>
		<stop  offset="0.5429" style="stop-color:#FFFFFF"/>
		<stop  offset="0.5903" style="stop-color:#E5E5E5"/>
		<stop  offset="0.6749" style="stop-color:#BCBCBC"/>
		<stop  offset="0.7417" style="stop-color:#A2A2A2"/>
		<stop  offset="0.7819" style="stop-color:#999999"/>
		<stop  offset="0.8108" style="stop-color:#A4A4A4"/>
		<stop  offset="0.8622" style="stop-color:#C3C3C3"/>
		<stop  offset="0.9297" style="stop-color:#F3F3F3"/>
		<stop  offset="0.9445" style="stop-color:#FFFFFF"/>
	</linearGradient>
	<path fill="url(#SVGID_00000119080446785382526300000016707798410890224291_)" d="M195.6,79.7h-8.1v-1.8h18.1v1.8h-8.1v14.9h-2
		V79.7z"/>
	
		<linearGradient id="SVGID_00000099636975543347736970000007314063987793470112_" gradientUnits="userSpaceOnUse" x1="8.7107" y1="150.1751" x2="364.3079" y2="41.9884">
		<stop  offset="0" style="stop-color:#B3B3B3"/>
		<stop  offset="0.1662" style="stop-color:#FFFFFF"/>
		<stop  offset="0.3464" style="stop-color:#B3B3B3"/>
		<stop  offset="0.5429" style="stop-color:#FFFFFF"/>
		<stop  offset="0.5903" style="stop-color:#E5E5E5"/>
		<stop  offset="0.6749" style="stop-color:#BCBCBC"/>
		<stop  offset="0.7417" style="stop-color:#A2A2A2"/>
		<stop  offset="0.7819" style="stop-color:#999999"/>
		<stop  offset="0.8108" style="stop-color:#A4A4A4"/>
		<stop  offset="0.8622" style="stop-color:#C3C3C3"/>
		<stop  offset="0.9297" style="stop-color:#F3F3F3"/>
		<stop  offset="0.9445" style="stop-color:#FFFFFF"/>
	</linearGradient>
	<path fill="url(#SVGID_00000099636975543347736970000007314063987793470112_)" d="M211.6,89.8c0.2,0.3,0.5,0.7,0.9,1.1
		c0.3,0.4,0.8,0.8,1.4,1.1c0.6,0.3,1.3,0.6,2.1,0.9c0.9,0.2,1.9,0.3,3.2,0.3c0.6,0,1.3-0.1,2-0.2c0.7-0.1,1.4-0.3,2-0.5
		c0.6-0.3,1.1-0.6,1.5-1c0.4-0.4,0.6-1,0.6-1.6c0-0.6-0.2-1.1-0.6-1.5c-0.4-0.4-1-0.7-1.7-0.8c-0.7-0.2-1.5-0.3-2.3-0.4
		c-0.9-0.1-1.8-0.2-2.7-0.3c-0.9-0.1-1.8-0.2-2.7-0.4c-0.9-0.1-1.7-0.4-2.3-0.7c-0.7-0.3-1.2-0.7-1.7-1.3c-0.4-0.5-0.6-1.2-0.6-2.1
		c0-0.9,0.2-1.6,0.6-2.3c0.4-0.6,0.9-1.2,1.6-1.5c0.7-0.4,1.5-0.7,2.5-0.9c1-0.2,2-0.3,3.1-0.3c1.1,0,2.1,0.1,3,0.3
		c0.9,0.2,1.7,0.5,2.4,0.8c0.7,0.3,1.3,0.7,1.8,1.1c0.5,0.4,0.9,0.8,1.2,1.2l-1.5,1.2c-0.2-0.2-0.4-0.5-0.7-0.8
		c-0.3-0.3-0.7-0.7-1.3-1c-0.5-0.3-1.2-0.6-2-0.8c-0.8-0.2-1.7-0.3-2.9-0.3c-0.8,0-1.6,0.1-2.3,0.2s-1.3,0.3-1.8,0.5
		c-0.5,0.2-0.9,0.5-1.2,0.9c-0.3,0.4-0.4,0.8-0.4,1.4c0,0.6,0.2,1.1,0.6,1.5c0.4,0.4,1,0.6,1.7,0.8c0.7,0.2,1.5,0.3,2.3,0.4
		c0.9,0.1,1.8,0.2,2.7,0.3c0.9,0.1,1.8,0.2,2.7,0.4c0.9,0.2,1.7,0.4,2.3,0.7c0.7,0.3,1.2,0.8,1.7,1.4c0.4,0.6,0.6,1.3,0.6,2.3
		c0,0.7-0.2,1.4-0.5,2c-0.3,0.6-0.9,1.2-1.6,1.6c-0.7,0.5-1.6,0.8-2.6,1.1c-1,0.3-2.3,0.4-3.7,0.4c-1.4,0-2.5-0.1-3.5-0.4
		c-1-0.3-1.8-0.6-2.5-1c-0.7-0.4-1.3-0.8-1.7-1.3c-0.5-0.5-0.9-0.9-1.2-1.3L211.6,89.8z"/>
	
		<linearGradient id="SVGID_00000043415657835898231770000016724670497503181721_" gradientUnits="userSpaceOnUse" x1="-8.2151" y1="94.5421" x2="347.3821" y2="-13.6446">
		<stop  offset="0" style="stop-color:#B3B3B3"/>
		<stop  offset="0.1662" style="stop-color:#FFFFFF"/>
		<stop  offset="0.3464" style="stop-color:#B3B3B3"/>
		<stop  offset="0.5429" style="stop-color:#FFFFFF"/>
		<stop  offset="0.5903" style="stop-color:#E5E5E5"/>
		<stop  offset="0.6749" style="stop-color:#BCBCBC"/>
		<stop  offset="0.7417" style="stop-color:#A2A2A2"/>
		<stop  offset="0.7819" style="stop-color:#999999"/>
		<stop  offset="0.8108" style="stop-color:#A4A4A4"/>
		<stop  offset="0.8622" style="stop-color:#C3C3C3"/>
		<stop  offset="0.9297" style="stop-color:#F3F3F3"/>
		<stop  offset="0.9445" style="stop-color:#FFFFFF"/>
	</linearGradient>
	<path fill-rule="evenodd" clip-rule="evenodd" fill="url(#SVGID_00000043415657835898231770000016724670497503181721_)" d="
		M170.3,45.5c0.9,1.2,2,2.5,3.2,4c1.2,1.5,2.9,2.8,5,4.1c2.1,1.3,4.7,2.3,7.8,3.2c3.1,0.8,6.9,1.3,11.5,1.3c2.3,0,4.8-0.2,7.4-0.6
		c2.6-0.4,5-1.1,7.2-2c2.2-0.9,4-2.2,5.4-3.8c1.4-1.6,2.1-3.6,2.1-5.9c0-2.3-0.7-4.2-2.2-5.5c-1.5-1.4-3.5-2.4-6-3.1
		c-2.5-0.7-5.3-1.3-8.5-1.6l-9.7-1c-3.3-0.3-6.5-0.8-9.7-1.3c-3.2-0.5-6-1.4-8.5-2.5c-2.5-1.1-4.5-2.7-6-4.6
		c-1.5-1.9-2.2-4.5-2.2-7.6c0-3.3,0.7-6.1,2.1-8.4c1.4-2.3,3.4-4.3,5.9-5.7c2.5-1.5,5.5-2.6,9-3.3c3.5-0.7,7.3-1.1,11.4-1.1
		c4,0,7.6,0.4,10.8,1.1c3.2,0.8,6.1,1.8,8.6,3c2.5,1.2,4.6,2.6,6.4,4.1c1.7,1.5,3.2,3,4.2,4.4l-5.3,4.4c-0.6-0.7-1.5-1.7-2.6-2.9
		c-1.1-1.2-2.7-2.4-4.6-3.6c-1.9-1.2-4.3-2.2-7.2-3c-2.9-0.8-6.3-1.3-10.5-1.3c-3.1,0-5.8,0.2-8.4,0.6c-2.5,0.4-4.7,1.1-6.5,1.9
		c-1.8,0.9-3.3,2-4.3,3.4c-1,1.4-1.5,3.1-1.5,5c0,2.3,0.7,4.1,2.2,5.4c1.5,1.3,3.5,2.3,6,3c2.5,0.7,5.3,1.2,8.5,1.5l9.7,0.9
		c3.3,0.3,6.5,0.8,9.7,1.4c3.2,0.6,6,1.5,8.5,2.8c2.5,1.2,4.5,2.9,6,5.1c1.5,2.1,2.2,4.9,2.2,8.4c0,2.6-0.6,5-1.9,7.3
		c-1.2,2.3-3.1,4.3-5.6,6c-2.5,1.7-5.6,3.1-9.5,4.1c-3.8,1-8.3,1.5-13.4,1.5c-4.9,0-9.2-0.5-12.7-1.4c-3.5-0.9-6.5-2.1-9-3.5
		c-2.5-1.4-4.6-3-6.2-4.6c-1.7-1.7-3.1-3.2-4.4-4.7L170.3,45.5"/>
	
		<linearGradient id="SVGID_00000075877969853807651290000014274891025072422314_" gradientUnits="userSpaceOnUse" x1="-13.8716" y1="75.9499" x2="341.7256" y2="-32.2368">
		<stop  offset="0" style="stop-color:#B3B3B3"/>
		<stop  offset="0.1662" style="stop-color:#FFFFFF"/>
		<stop  offset="0.3464" style="stop-color:#B3B3B3"/>
		<stop  offset="0.5429" style="stop-color:#FFFFFF"/>
		<stop  offset="0.5903" style="stop-color:#E5E5E5"/>
		<stop  offset="0.6749" style="stop-color:#BCBCBC"/>
		<stop  offset="0.7417" style="stop-color:#A2A2A2"/>
		<stop  offset="0.7819" style="stop-color:#999999"/>
		<stop  offset="0.8108" style="stop-color:#A4A4A4"/>
		<stop  offset="0.8622" style="stop-color:#C3C3C3"/>
		<stop  offset="0.9297" style="stop-color:#F3F3F3"/>
		<stop  offset="0.9445" style="stop-color:#FFFFFF"/>
	</linearGradient>
	
		<polyline fill-rule="evenodd" clip-rule="evenodd" fill="url(#SVGID_00000075877969853807651290000014274891025072422314_)" points="
		109.5,1.5 118.5,1.5 149.5,63.1 141.3,63.1 114,7.4 86.5,63.1 78.4,63.1 109.5,1.5 	"/>
	
		<linearGradient id="SVGID_00000033351796133980238630000014744014987048082350_" gradientUnits="userSpaceOnUse" x1="-23.3357" y1="44.8423" x2="332.2615" y2="-63.3444">
		<stop  offset="0" style="stop-color:#B3B3B3"/>
		<stop  offset="0.1662" style="stop-color:#FFFFFF"/>
		<stop  offset="0.3464" style="stop-color:#B3B3B3"/>
		<stop  offset="0.5429" style="stop-color:#FFFFFF"/>
		<stop  offset="0.5903" style="stop-color:#E5E5E5"/>
		<stop  offset="0.6749" style="stop-color:#BCBCBC"/>
		<stop  offset="0.7417" style="stop-color:#A2A2A2"/>
		<stop  offset="0.7819" style="stop-color:#999999"/>
		<stop  offset="0.8108" style="stop-color:#A4A4A4"/>
		<stop  offset="0.8622" style="stop-color:#C3C3C3"/>
		<stop  offset="0.9297" style="stop-color:#F3F3F3"/>
		<stop  offset="0.9445" style="stop-color:#FFFFFF"/>
	</linearGradient>
	<path fill-rule="evenodd" clip-rule="evenodd" fill="url(#SVGID_00000033351796133980238630000014744014987048082350_)" d="M0,1.5
		h29.9c4.7,0,9,0.6,13,1.9c3.9,1.3,7.4,3.2,10.2,5.7c2.9,2.5,5.1,5.7,6.7,9.4c1.6,3.8,2.4,8.2,2.4,13.2c0,6.3-1.1,11.4-3.2,15.5
		c-2.1,4-4.8,7.2-8.2,9.6c-3.4,2.4-7.1,4-11.2,4.9c-4.1,0.9-8.2,1.4-12.2,1.4H0v-6.6h7.3v0h21.4c1,0,2.3-0.1,4-0.2
		c1.7-0.1,3.5-0.4,5.4-0.9c1.9-0.5,3.9-1.3,5.9-2.3c2-1,3.8-2.5,5.4-4.3c1.6-1.8,2.9-4.2,3.9-6.9c1-2.8,1.5-6.2,1.5-10.3
		c0-4.5-0.7-8.3-2.2-11.3c-1.4-3-3.3-5.4-5.7-7.2c-2.3-1.8-5-3.1-8-3.8c-3-0.7-6-1.1-9.1-1.1H7.3v24.4H0V1.5"/>
	
		<linearGradient id="SVGID_00000029027600654842738740000009982101012941198013_" gradientUnits="userSpaceOnUse" x1="4.3286" y1="135.7718" x2="359.9258" y2="27.5851">
		<stop  offset="0" style="stop-color:#B3B3B3"/>
		<stop  offset="0.1662" style="stop-color:#FFFFFF"/>
		<stop  offset="0.3464" style="stop-color:#B3B3B3"/>
		<stop  offset="0.5429" style="stop-color:#FFFFFF"/>
		<stop  offset="0.5903" style="stop-color:#E5E5E5"/>
		<stop  offset="0.6749" style="stop-color:#BCBCBC"/>
		<stop  offset="0.7417" style="stop-color:#A2A2A2"/>
		<stop  offset="0.7819" style="stop-color:#999999"/>
		<stop  offset="0.8108" style="stop-color:#A4A4A4"/>
		<stop  offset="0.8622" style="stop-color:#C3C3C3"/>
		<stop  offset="0.9297" style="stop-color:#F3F3F3"/>
		<stop  offset="0.9445" style="stop-color:#FFFFFF"/>
	</linearGradient>
	<path fill-rule="evenodd" clip-rule="evenodd" fill="url(#SVGID_00000029027600654842738740000009982101012941198013_)" d="
		M333.1,1.5h-40.5h-40.5c-3.4,0-6.1,2.7-6.1,6.1v80.9c0,3.4,2.7,6.1,6.1,6.1h80.9c3.4,0,6.1-2.7,6.1-6.1V7.6
		C339.2,4.2,336.4,1.5,333.1,1.5z M334.2,38.1c-0.6,0.4-11.9,6.2-12,6.2l-0.4,0.2c-1.5,0.7-3.3,1.6-4.3,1.8c-0.1,0-0.3,0-0.4,0
		c-0.4,0-0.6-0.1-0.7-0.4c-0.1-0.3,0.2-0.7,1.8-1.6c0.2-0.1,2.1-1,4.4-2.2c3.2-1.6,7.2-3.6,7.8-3.9c2.9-1.4,3.1-1.9,3.1-2
		c0,0-0.1-0.1-0.1-0.1c-0.1-0.1-0.2-0.1-0.2-0.1c-0.2-0.1-0.5-0.2-0.8-0.2c-0.3-0.1-0.6-0.1-1-0.2c-0.2,0-0.4-0.1-0.7-0.1
		c-0.2,0-0.5,0-0.7-0.1c-0.4,0-0.8-0.1-1.1-0.1c-0.3,0-0.5,0-0.8,0l-0.1,0c-0.4,0-1.1,0-1.2,0c-0.6,0-1.7,0.1-2.2,0.2
		c-2.6,0.4-3,0.5-7,2.3L280,54.8c-0.4,0.2-0.8,0.3-1.2,0.3c-0.3,0-0.6-0.1-0.9-0.2c-1.6-0.6-5.9-1.9-7.8-2.6c-0.1,0-0.3-0.1-0.4-0.1
		c-0.1,0-0.2,0-0.2,0c-0.1,0-0.5,0.3-0.7,0.4l-1.4,0.9c-0.5,0.3-0.8,0.5-1.3,0.9c-0.4,0.3-0.5,0.5-0.5,0.6c0.2,0.6,4.9,4,6.4,4.8
		c0.6,0.4,1.1,0.4,1.3,0.4l0.1,0c0.1,0,0.1,0,0.2,0c0.8,0,2.9-0.2,5.1-0.5c2.7-0.3,5.7-0.6,7.3-0.6c0.8,0,1.1,0.1,1.2,0.2l0.1,0.1
		l0,0.1c0.1,0.2,0,0.3-0.1,0.5c-0.4,0.6-1.8,0.8-3.9,1.1c-2.1,0.2-8.9,1-11.3,1.1l0,0l0,0c-0.9-0.1-3.9-2.2-7.1-4.6
		c-0.8-0.6-1.5-1.1-1.8-1.3c0,0-0.1-0.1-0.4-0.1c-0.7,0-2.2,0.4-4,0.9c-1.9,0.5-4.2,1.2-6.9,1.8c-0.2,0-0.5,0.1-0.7,0.1
		c-0.7,0-1.2-0.2-1.3-0.6c-0.1-0.5,0.4-0.9,1.7-1.4l16.2-7.3c0,0,0.2-0.1,0.4-0.1c0,0,0,0,0,0c0.2,0,0.4,0,0.4,0l10.7,3.3
		c0,0,0.1,0,0.1,0c0.1,0,0.1,0,0.2,0c1.6-0.7,10.4-4.7,19.5-8.7l5.3-2.3l0.1,0l4.6-2l0.1-0.1l9.6-4.2l0.2-0.1l0.9-0.4l0.1-0.1
		l0.5-0.2c0.9-0.4,2.6-0.6,3.7-0.7c0.9-0.1,2-0.2,3-0.2c2.7,0,4.9,0.3,5.7,0.5c2.1,0.4,2.7,1.2,2.8,1.8
		C335.7,36.8,335.2,37.6,334.2,38.1z"/>
</g>
</svg>
