<svg xmlns="http://www.w3.org/2000/svg" width="494.852" height="85.537" viewBox="0 0 494.852 85.537">
    <path d="M49.988,34.489H72.03a35.926,35.926,0,0,0-7.852-20.972,53.809,53.809,0,0,1-14.19,6.052V16.422h-.072a50.72,50.72,0,0,0,12.208-5.253A35.94,35.94,0,0,0,37.532,0V16.422H34.5V0A35.92,35.92,0,0,0,9.881,11.2a50.45,50.45,0,0,0,16.077,6.167v3.089A53.524,53.524,0,0,1,7.853,13.517,35.836,35.836,0,0,0,0,34.489H25.958v3.034H0a35.874,35.874,0,0,0,7.872,21,53.659,53.659,0,0,1,18.081-6.954v3.1A50.514,50.514,0,0,0,9.881,60.815,35.916,35.916,0,0,0,34.5,72.015V55.435h3.036v16.58a35.925,35.925,0,0,0,24.615-11.2,50.626,50.626,0,0,0-21.561-6.934V50.834a53.765,53.765,0,0,1,23.583,7.659,35.863,35.863,0,0,0,7.851-20.97H49.988Zm-2.977-7.778H37.555v5.5h9.4v7.254h-9.4V52.4H28.991V19.456h18.02Z"
    />
    <path d="M336.68,31.291a2.087,2.087,0,0,1-1.81.845,2.124,2.124,0,0,1-1.368-.514,4.146,4.146,0,0,1-1.006-1.19l-.024-.043-.041.026a13.816,13.816,0,0,0-2.376,2.1,12.86,12.86,0,0,0-2.281,3.519l0,11.584a.738.738,0,0,0,.354.666,3.9,3.9,0,0,0,1.488.321l1.807.153.136,1.744h-10.7l.135-1.746,1.288-.151c1.1-.107,1.65-.458,1.65-1.04V34.326c0-.834-.024-1.5-.07-1.992a3.232,3.232,0,0,0-.314-1.2,1.782,1.782,0,0,0-.631-.7,3.588,3.588,0,0,0-1.054-.4l-1.1-.3L320.8,28.4l6.965-2.015v6.683h.31l.012-.024a28.286,28.286,0,0,1,3.355-5.12,4.105,4.105,0,0,1,3.044-1.554,2.621,2.621,0,0,1,2.073.822,3.031,3.031,0,0,1,.722,2.064,3.443,3.443,0,0,1-.606,2.04M484.138,47.92l-.221-1.223a10.857,10.857,0,0,1-1.916.911,5.858,5.858,0,0,1-1.981.37,4.179,4.179,0,0,1-3.062-1.138c-.764-.755-1.118-2.114-1.055-4.037l.381-13.126h7.39l.319-2.526h-7.759V27.1l.047-4.41-1.447-.3a16.18,16.18,0,0,1-2.593,3.309,15.412,15.412,0,0,1-3.539,2.374v1.6h3.789v.046l-.331,14.232a11,11,0,0,0,.376,3.389,6.1,6.1,0,0,0,1.2,2.285,4.55,4.55,0,0,0,1.782,1.27,6.064,6.064,0,0,0,2.185.39,7.465,7.465,0,0,0,3.412-.912,9.529,9.529,0,0,0,3.026-2.457M265.228,34.17c0,.418-.025.891-.071,1.409a11.043,11.043,0,0,1-.2,1.372l-14.025-.21h-.046v.621a14.946,14.946,0,0,0,.547,4.148,10.026,10.026,0,0,0,1.546,3.232,7.562,7.562,0,0,0,2.358,2.105,5.908,5.908,0,0,0,2.934.765,7.935,7.935,0,0,0,3.048-.632,7.083,7.083,0,0,0,2.739-2.127l.878.533a10.613,10.613,0,0,1-3.518,4.366,8.672,8.672,0,0,1-5.041,1.536,8.139,8.139,0,0,1-3.813-.911,9.336,9.336,0,0,1-2.992-2.474,11.855,11.855,0,0,1-1.958-3.7,14.587,14.587,0,0,1-.708-4.59,15.762,15.762,0,0,1,.873-5.348,13.755,13.755,0,0,1,2.359-4.2,10.448,10.448,0,0,1,3.489-2.735,9.756,9.756,0,0,1,4.265-.964,6.985,6.985,0,0,1,5.364,2.131,8.046,8.046,0,0,1,1.977,5.672m-5.219-4.106a3.569,3.569,0,0,0-3.163-1.853,4.5,4.5,0,0,0-1.914.45,5.368,5.368,0,0,0-1.742,1.346,8.667,8.667,0,0,0-1.357,2.157,10.816,10.816,0,0,0-.808,2.942l-.008.052h9.943l0-.043a8.6,8.6,0,0,0-.955-5.05m54.619-9.436a2.359,2.359,0,0,1,1.036.961,5.694,5.694,0,0,1,.5,1.425l1.083,5.04h2.189V17.888H293.864l-.8,10.166h2.281l1.319-5.564a4.388,4.388,0,0,1,.6-1.4,2.4,2.4,0,0,1,1.182-.8,8.029,8.029,0,0,1,2.166-.37c.888-.052,2.092-.078,3.578-.078h.14V47.514a.744.744,0,0,1-.376.639,3.247,3.247,0,0,1-1.321.348l-2.8.258-.135,1.744h13.632l-.135-1.744-2.8-.258a4.025,4.025,0,0,1-1.345-.294.634.634,0,0,1-.354-.588V19.839h.14a34.786,34.786,0,0,1,3.723.236,6.685,6.685,0,0,1,2.075.553m-30.651,8.623a3.031,3.031,0,0,0-.722-2.064,2.623,2.623,0,0,0-2.073-.822,4.105,4.105,0,0,0-3.044,1.554,28.286,28.286,0,0,0-3.355,5.12l-.012.024h-.31V26.38L267.494,28.4l-.044,1.345,1.1.3a3.589,3.589,0,0,1,1.054.4,1.791,1.791,0,0,1,.631.7,3.254,3.254,0,0,1,.314,1.2c.046.488.07,1.157.07,1.992v13.24c0,.583-.555.933-1.65,1.04l-1.288.151-.135,1.746h10.7l-.136-1.744-1.807-.153a3.909,3.909,0,0,1-1.489-.321.737.737,0,0,1-.353-.666l0-11.584a12.86,12.86,0,0,1,2.281-3.519,13.773,13.773,0,0,1,2.376-2.1l.041-.026.024.043a4.146,4.146,0,0,0,1.006,1.19,2.122,2.122,0,0,0,1.368.514,2.084,2.084,0,0,0,1.809-.845,3.436,3.436,0,0,0,.607-2.04m72.387,21.132a3.685,3.685,0,0,1-2.362.958,2.873,2.873,0,0,1-2.191-.9,4.472,4.472,0,0,1-.935-2.876l0-.043h-.3l-.015.017a17.134,17.134,0,0,1-2.644,2.636,5.123,5.123,0,0,1-5.326.648,5.927,5.927,0,0,1-1.785-1.272,6.281,6.281,0,0,1,1.153-9.587,28.423,28.423,0,0,1,8.934-3.6l.034-.009v-.506a16.007,16.007,0,0,0-.332-3.6,5.961,5.961,0,0,0-.931-2.189,3.059,3.059,0,0,0-1.466-1.089,5.984,5.984,0,0,0-1.908-.29,6.1,6.1,0,0,0-1.216.132,7.971,7.971,0,0,0-1.143.316,4.456,4.456,0,0,0-.837.4c-.238.15-.353.283-.353.4a.639.639,0,0,0,.176.343,6.427,6.427,0,0,1,.375.545,4.407,4.407,0,0,1,.375.777,2.712,2.712,0,0,1,.163.952,2.554,2.554,0,0,1-.653,1.723,2.29,2.29,0,0,1-1.812.743,2.327,2.327,0,0,1-1.742-.693,2.377,2.377,0,0,1-.674-1.721,3.45,3.45,0,0,1,.867-2.039,10.146,10.146,0,0,1,2.215-2.058,14.652,14.652,0,0,1,2.9-1.564,7.993,7.993,0,0,1,2.966-.626,9.988,9.988,0,0,1,3.463.522,4.219,4.219,0,0,1,2.155,1.76,8.467,8.467,0,0,1,1.059,3.3,29.3,29.3,0,0,1,.141,5.146l-.331,8.9a2.466,2.466,0,0,0,.4,1.8.967.967,0,0,0,.73.29,2.067,2.067,0,0,0,1.065-.32,11.018,11.018,0,0,0,1.245-.914l.759,1.084a12.748,12.748,0,0,1-2.223,2.5m-5.534-12.4-.06.016a22.833,22.833,0,0,0-3.866,1.364,11.132,11.132,0,0,0-2.416,1.5,4.328,4.328,0,0,0-1.226,1.587,4.376,4.376,0,0,0-.337,1.666,4,4,0,0,0,1.037,2.91,3.318,3.318,0,0,0,2.439,1.061c1.307,0,2.713-.745,4.176-2.211l.012-.014.239-7.815Zm116.437-8.731a3.031,3.031,0,0,0-.722-2.064,2.621,2.621,0,0,0-2.073-.822,4.105,4.105,0,0,0-3.044,1.554,28.288,28.288,0,0,0-3.355,5.12l-.012.024h-.31V26.38L450.785,28.4l-.044,1.345,1.1.3a3.576,3.576,0,0,1,1.054.4,1.782,1.782,0,0,1,.631.7,3.232,3.232,0,0,1,.314,1.2c.046.488.07,1.157.07,1.992v13.24c0,.583-.555.933-1.65,1.04l-1.288.151-.135,1.746h10.7l-.136-1.744-1.807-.153a3.9,3.9,0,0,1-1.488-.321.738.738,0,0,1-.354-.666l0-11.584a12.86,12.86,0,0,1,2.281-3.519,13.817,13.817,0,0,1,2.376-2.1l.041-.026.024.043a4.146,4.146,0,0,0,1.006,1.19,2.124,2.124,0,0,0,1.368.514,2.087,2.087,0,0,0,1.81-.845,3.443,3.443,0,0,0,.606-2.04m-24.688,21a9.6,9.6,0,0,1-4.43,1.041,9.375,9.375,0,0,1-4.264-.964,9.839,9.839,0,0,1-3.253-2.631,11.87,11.87,0,0,1-2.051-3.936,16.2,16.2,0,0,1-.709-4.827,13.74,13.74,0,0,1,.873-4.9,12.812,12.812,0,0,1,2.383-3.989,11.358,11.358,0,0,1,3.56-2.685,9.961,9.961,0,0,1,4.359-.99,9.543,9.543,0,0,1,4.194.912,9.771,9.771,0,0,1,3.229,2.5,11.5,11.5,0,0,1,2.075,3.727,14.343,14.343,0,0,1,.73,4.642,15.041,15.041,0,0,1-.849,5.086,13.833,13.833,0,0,1-2.336,4.172,11.145,11.145,0,0,1-3.512,2.841m2.481-9.9a26.5,26.5,0,0,0-.593-5.714,9.442,9.442,0,0,0-1.928-4.207,9.289,9.289,0,0,0-1.547-1.288,4.486,4.486,0,0,0-2.606-.715,5.263,5.263,0,0,0-2.483.606,6.121,6.121,0,0,0-2,1.74,8.44,8.44,0,0,0-1.333,2.788,13.658,13.658,0,0,0-.476,3.754,25.489,25.489,0,0,0,.618,5.713,9.584,9.584,0,0,0,1.952,4.208,9.653,9.653,0,0,0,1.522,1.288,4.463,4.463,0,0,0,2.631.715,5.015,5.015,0,0,0,2.412-.607,6.169,6.169,0,0,0,1.98-1.739A8.811,8.811,0,0,0,444.56,44.1a13.063,13.063,0,0,0,.5-3.754m-44.45,6.221a7.516,7.516,0,0,0,.541-2.8,6.482,6.482,0,0,0-.564-2.826,6.675,6.675,0,0,0-1.458-2,9.4,9.4,0,0,0-2.025-1.428c-.745-.394-1.509-.772-2.271-1.123a22.782,22.782,0,0,1-3.746-1.962A3.111,3.111,0,0,1,389.74,31.7a3.222,3.222,0,0,1,1.1-2.512,3.909,3.909,0,0,1,2.681-.978,5.8,5.8,0,0,1,1.861.343,5.6,5.6,0,0,1,1.767.976l.011.01,0,.015.938,4.309h2.237l-.281-7.368-1.425.659-.018-.007a12.189,12.189,0,0,0-1.934-.627,12.362,12.362,0,0,0-2.783-.26,8.312,8.312,0,0,0-3.249.6,6.787,6.787,0,0,0-3.786,3.822,6.877,6.877,0,0,0-.495,2.547,6.75,6.75,0,0,0,.54,2.832,6.522,6.522,0,0,0,1.411,2,8.47,8.47,0,0,0,1.978,1.405c.728.379,1.5.747,2.295,1.1.654.276,1.307.567,1.941.864a10.986,10.986,0,0,1,1.688.972,4.555,4.555,0,0,1,1.172,1.189,2.929,2.929,0,0,1,.433,1.622,3.751,3.751,0,0,1-.407,1.774,4.569,4.569,0,0,1-1.053,1.322,4.776,4.776,0,0,1-1.41.845,4.2,4.2,0,0,1-1.484.291,5.088,5.088,0,0,1-2.03-.423,8.119,8.119,0,0,1-1.785-1.053l-.012-.009,0-.016-1.081-4.57h-2.283l.281,6.83a16.729,16.729,0,0,0,6.348,1.085,9.327,9.327,0,0,0,3.51-.622,7.746,7.746,0,0,0,2.589-1.688,7.219,7.219,0,0,0,1.6-2.412m18.513,3.577a9.448,9.448,0,0,1-4.675,1.145,13.729,13.729,0,0,1-2.117-.209,14.47,14.47,0,0,1-2.21-.522l-.108,0v9.936a.741.741,0,0,0,.353.666,3.954,3.954,0,0,0,1.489.321l1.808.153.135,1.744H403.1l.136-1.745,1.286-.152c1.1-.107,1.651-.458,1.651-1.04V34.326c0-.836-.024-1.507-.071-1.992a3.223,3.223,0,0,0-.313-1.2,1.8,1.8,0,0,0-.631-.7,3.6,3.6,0,0,0-1.053-.4l-1.1-.3.045-1.345,6.964-2.015V30.6h.3l.014-.017a11.7,11.7,0,0,1,3.15-2.788,6.924,6.924,0,0,1,7.08-.183,8.252,8.252,0,0,1,2.629,2.394,11.16,11.16,0,0,1,1.644,3.571,16.506,16.506,0,0,1,.566,4.357,16.89,16.89,0,0,1-.729,4.906,14.068,14.068,0,0,1-2.117,4.277,10.841,10.841,0,0,1-3.432,3.023m2.155-10.27a12.984,12.984,0,0,0-1.633-7.01,4.926,4.926,0,0,0-4.258-2.56,5.348,5.348,0,0,0-3.09.95,9.594,9.594,0,0,0-2.273,2.156l-.01.012v12.59l.011.012a13.5,13.5,0,0,0,2.317,2.206,5.023,5.023,0,0,0,3.091,1,4.066,4.066,0,0,0,2.193-.662,6.447,6.447,0,0,0,1.877-1.9,10.108,10.108,0,0,0,1.3-2.97,14.6,14.6,0,0,0,.473-3.832M382.6,48.6a4.237,4.237,0,0,1-1.63-.4.754.754,0,0,1-.351-.639V33.8a12.08,12.08,0,0,0-.423-3.336,6.311,6.311,0,0,0-1.359-2.494,4.538,4.538,0,0,0-1.774-1.217,5.809,5.809,0,0,0-2.06-.39,8.085,8.085,0,0,0-3.823,1.014,17.6,17.6,0,0,0-3.693,2.689l-.014.011h-.3v-3.7L360.209,28.4l-.044,1.345,1.1.3a3.576,3.576,0,0,1,1.054.4,1.783,1.783,0,0,1,.631.7,3.231,3.231,0,0,1,.314,1.2c.046.488.07,1.157.07,1.992v13.24c0,.583-.554.933-1.65,1.04l-1.288.151-.135,1.746h10.46l-.136-1.744-1.57-.153a3.9,3.9,0,0,1-1.488-.321.738.738,0,0,1-.354-.666V32.107l.017-.014a12.52,12.52,0,0,1,2.328-1.5,6.339,6.339,0,0,1,2.9-.711,5.18,5.18,0,0,1,1.891.317,2.966,2.966,0,0,1,1.358,1.116A5.943,5.943,0,0,1,376.5,33.4a15.451,15.451,0,0,1,.283,3.228V47.566a.855.855,0,0,1-.3.69,2.84,2.84,0,0,1-1.351.351l-1.192.151L373.8,50.5h10.129l-.135-1.746ZM183.91,48.553a2.152,2.152,0,0,1-1.234-.694,10.947,10.947,0,0,1-1.213-1.63L175.1,36.466l.026-.026,2.319-2.356c.948-.938,1.714-1.692,2.344-2.3a21.982,21.982,0,0,1,1.709-1.52,6.807,6.807,0,0,1,1.382-.869,5.28,5.28,0,0,1,1.266-.4l.675-.149.135-1.7H174.828l.135,1.694.674.1a4.214,4.214,0,0,1,1.34.371,1.053,1.053,0,0,1,.546,1.035,3.508,3.508,0,0,1-1.129,2.1c-.739.813-1.627,1.755-2.641,2.8l-3.359,3.429v-.112l.01-24.43-6.965,2.015-.045,1.345,1.1.3a3.576,3.576,0,0,1,1.054.4,1.809,1.809,0,0,1,.631.7,3.245,3.245,0,0,1,.313,1.195c.047.489.071,1.16.071,1.993l.02,25.485a.763.763,0,0,1-.4.72,3.658,3.658,0,0,1-1.248.32l-1.288.151-.135,1.746H173.5l-.135-1.746-1.1-.152a5.061,5.061,0,0,1-1.483-.345.679.679,0,0,1-.355-.641v-6.4l.012-.014,1.935-1.978.03.05,3.93,6.543,2.545,4.686h6.695l-.136-1.746Zm-21.5-3.167-.879-.533a7.075,7.075,0,0,1-2.739,2.127,7.931,7.931,0,0,1-3.048.632,5.764,5.764,0,0,1-2.935-.792,7.631,7.631,0,0,1-2.358-2.184,10.653,10.653,0,0,1-1.545-3.31,15.011,15.011,0,0,1-.547-4.121,13.663,13.663,0,0,1,.476-3.754,8.744,8.744,0,0,1,1.31-2.787,5.95,5.95,0,0,1,1.955-1.74,5.016,5.016,0,0,1,2.413-.607,4.092,4.092,0,0,1,2.633.848l.017.014V29.3a5.11,5.11,0,0,0,.373,3.406,2.3,2.3,0,0,0,2.091,1.416,3.338,3.338,0,0,0,.887-.13,2.216,2.216,0,0,0,.835-.436,2.437,2.437,0,0,0,.628-.848,3.21,3.21,0,0,0,.256-1.367,4.339,4.339,0,0,0-.422-1.838,4.627,4.627,0,0,0-1.267-1.607,6.472,6.472,0,0,0-2.092-1.116,9.186,9.186,0,0,0-2.9-.417,9.809,9.809,0,0,0-4.241.964,10.858,10.858,0,0,0-3.56,2.736,13.934,13.934,0,0,0-2.454,4.2,15.026,15.026,0,0,0-.92,5.348,14.567,14.567,0,0,0,.708,4.59,11.875,11.875,0,0,0,1.957,3.7,9.361,9.361,0,0,0,2.992,2.474,8.147,8.147,0,0,0,3.814.911,8.666,8.666,0,0,0,5.04-1.536,10.624,10.624,0,0,0,3.519-4.366m33.771,3.22a3.9,3.9,0,0,1-1.487-.321.737.737,0,0,1-.353-.666V26.38L187.374,28.4l-.046,1.345,1.1.3a3.608,3.608,0,0,1,1.054.4,1.809,1.809,0,0,1,.631.7,3.245,3.245,0,0,1,.313,1.2c.047.488.071,1.159.071,1.992v13.24c0,.583-.556.933-1.651,1.04l-1.287.151-.135,1.746H197.65l-.135-1.745Zm-55.6-.525c-.367-.148-.552-.567-.552-1.248V27.151H132.36l.18,1.744,1.809.153a3.953,3.953,0,0,1,1.488.321.739.739,0,0,1,.353.666V45.547l-.016.014a12.705,12.705,0,0,1-2.352,1.5,6.456,6.456,0,0,1-2.933.711,3.908,3.908,0,0,1-3.279-1.456c-.745-.964-1.123-2.742-1.123-5.287l.378-13.874H119.48l.136,1.746,1.1.152c.436.069.793.113,1.062.13a2.315,2.315,0,0,1,.628.108.616.616,0,0,1,.331.254,1.111,1.111,0,0,1,.1.548L122.7,43.851a12,12,0,0,0,.425,3.336,6.281,6.281,0,0,0,1.363,2.494,4.532,4.532,0,0,0,1.782,1.217,5.832,5.832,0,0,0,2.067.39,8.139,8.139,0,0,0,3.838-1.015,17.676,17.676,0,0,0,3.707-2.688l.012-.012h.3v3.709l7.395-.931.134-1.235Zm-22.555.525a3.894,3.894,0,0,1-1.487-.321.737.737,0,0,1-.353-.666V14.135l-6.965,2.015-.045,1.345,1.1.3a3.6,3.6,0,0,1,1.054.4,1.808,1.808,0,0,1,.631.7,3.224,3.224,0,0,1,.312,1.195c.048.489.072,1.16.072,1.993V47.566c0,.583-.556.933-1.651,1.04l-1.288.151-.135,1.746H119.5l-.135-1.745ZM103.061,21.011a6.134,6.134,0,0,1,.621,1.476l1.035,5.042h2.19V17.888H84.323l.135,1.746,1.9.257a5.4,5.4,0,0,1,1.365.319.589.589,0,0,1,.332.564V47.514a.746.746,0,0,1-.376.639,3.247,3.247,0,0,1-1.322.348l-1.9.256L84.323,50.5H97.1l-.135-1.744L94.118,48.5a3.968,3.968,0,0,1-1.345-.294.634.634,0,0,1-.354-.588V35.17h1.749c.99,0,1.8.018,2.394.053a5.562,5.562,0,0,1,1.361.212,1.138,1.138,0,0,1,.64.411,1.607,1.607,0,0,1,.195.62l.374,3.309h1.67l1.034-11.212h-1.764L99,32.038a1.778,1.778,0,0,1-.39.62,1.662,1.662,0,0,1-.755.378,6.237,6.237,0,0,1-1.359.159c-.544.018-1.272.026-2.227.026H92.42V19.839h1.228c2.182,0,3.927.017,5.186.052a13.6,13.6,0,0,1,2.875.314,2.195,2.195,0,0,1,1.352.806m138.115,8.97v.382l.008.011a8.893,8.893,0,0,1,.942,1.822,7.135,7.135,0,0,1,.375,2.5,8.016,8.016,0,0,1-.658,3.227,8.789,8.789,0,0,1-1.79,2.655,8.317,8.317,0,0,1-2.637,1.794,8.119,8.119,0,0,1-3.249.651,11.207,11.207,0,0,1-1.485-.1,10.233,10.233,0,0,1-1.343-.261l-.017,0-.017.009a6.52,6.52,0,0,0-.62.4,4.841,4.841,0,0,0-.668.58,3.718,3.718,0,0,0-.552.716,1.584,1.584,0,0,0-.219.807,2.22,2.22,0,0,0,.893,1.789,3.381,3.381,0,0,0,2.183.717c1.037,0,2.049-.026,3.008-.079s1.829-.078,2.579-.078a6.708,6.708,0,0,1,2.7.545,6.862,6.862,0,0,1,2.163,1.481,7.06,7.06,0,0,1,1.458,2.21,6.941,6.941,0,0,1,.541,2.73,8.13,8.13,0,0,1-.895,3.8,8.952,8.952,0,0,1-2.519,2.968,12.057,12.057,0,0,1-3.846,1.93,16.856,16.856,0,0,1-4.909.677,9.793,9.793,0,0,1-5.962-1.666,5.255,5.255,0,0,1-2.23-4.411,5.565,5.565,0,0,1,1.385-3.842,7.256,7.256,0,0,1,1.458-1.275,13.264,13.264,0,0,1,1.722-.965l.026-.011V51.4l-.037-.008a3.641,3.641,0,0,1-2.291-1.421,4.006,4.006,0,0,1-.89-2.458,4.521,4.521,0,0,1,1.1-2.9,8.435,8.435,0,0,1,2.756-2.185l.025-.014v-.027a.272.272,0,0,1,.082-.179.094.094,0,0,1,.061-.037l.021-.087a7.46,7.46,0,0,1-2.894-2.7,8.343,8.343,0,0,1-1.106-4.477,8.942,8.942,0,0,1,.636-3.385,8.071,8.071,0,0,1,4.45-4.5,8.619,8.619,0,0,1,3.344-.65,11,11,0,0,1,3.042.39,13.811,13.811,0,0,1,2.619,1.071l6.414,0v3.143l-5.107-.984ZM229.089,53.287a6.18,6.18,0,0,0-.787,1.337,4.234,4.234,0,0,0-.335,1.71,4.913,4.913,0,0,0,1.911,4.071,7.746,7.746,0,0,0,4.9,1.493,6.94,6.94,0,0,0,4.718-1.546,5.351,5.351,0,0,0,.667-7.222c-.731-.875-2.048-1.354-3.915-1.422-.915-.033-1.793-.025-2.609.027s-1.755.079-2.791.079l-.019,0a4.7,4.7,0,0,0-.813.526,5.334,5.334,0,0,0-.932.944m9.575-18.436a11.579,11.579,0,0,0-.4-3.152,5.794,5.794,0,0,0-1.217-2.321,3.67,3.67,0,0,0-2.78-1.323,3.893,3.893,0,0,0-3.256,1.667,7.107,7.107,0,0,0-1.24,4.344,11.11,11.11,0,0,0,.523,3.547,7.2,7.2,0,0,0,1.43,2.555,3.229,3.229,0,0,0,2.448,1.165,3.88,3.88,0,0,0,3.017-1.165c.982-1.052,1.48-2.84,1.48-5.316M222.273,48.6a4.231,4.231,0,0,1-1.63-.4.756.756,0,0,1-.352-.639V33.8a12.069,12.069,0,0,0-.423-3.336,6.308,6.308,0,0,0-1.357-2.494,4.545,4.545,0,0,0-1.776-1.217,5.8,5.8,0,0,0-2.059-.39,8.085,8.085,0,0,0-3.824,1.014,17.631,17.631,0,0,0-3.693,2.689l-.014.011h-.3v-3.7L199.882,28.4l-.045,1.345,1.1.3a3.608,3.608,0,0,1,1.054.4,1.809,1.809,0,0,1,.631.7,3.246,3.246,0,0,1,.313,1.2c.047.488.071,1.159.071,1.992v13.24c0,.583-.555.933-1.651,1.04l-1.287.151-.135,1.746h10.46l-.136-1.744-1.571-.153a3.9,3.9,0,0,1-1.488-.321.739.739,0,0,1-.353-.666V32.107l.017-.014a12.445,12.445,0,0,1,2.329-1.5,6.338,6.338,0,0,1,2.9-.711,5.182,5.182,0,0,1,1.892.317,2.969,2.969,0,0,1,1.357,1.116,5.921,5.921,0,0,1,.827,2.083,15.527,15.527,0,0,1,.283,3.228V47.566a.852.852,0,0,1-.3.69,2.83,2.83,0,0,1-1.35.351l-1.194.151-.135,1.746H223.6l-.135-1.746ZM189.458,18.732a3.817,3.817,0,0,0,.607,2.121,2.428,2.428,0,0,0,3.807,0,4,4,0,0,0,0-4.241,2.426,2.426,0,0,0-3.807,0,3.81,3.81,0,0,0-.607,2.12"
          transform="translate(10.714 1.796)"/>
    <path d="M95.721,68.929a3.688,3.688,0,0,1-1.329,3.1,5.869,5.869,0,0,1-3.6,1.077l-1.591.02v4.018h-1.65V65.008h3.359a7.126,7.126,0,0,1,2.155.291,4.149,4.149,0,0,1,1.5.815,3.217,3.217,0,0,1,.873,1.243,4.281,4.281,0,0,1,.281,1.572m-1.668.078q0-2.467-3.223-2.466H89.2V71.57l1.767-.038a3.687,3.687,0,0,0,2.31-.691,2.256,2.256,0,0,0,.777-1.834m6.6,3.959a3.384,3.384,0,0,0,.243,1.2,2.992,2.992,0,0,0,.6.935,2.669,2.669,0,0,0,.913.618,3.053,3.053,0,0,0,1.174.221,5.733,5.733,0,0,0,1.408-.179,4.03,4.03,0,0,0,1.251-.539l.292,1.475a4.677,4.677,0,0,1-1.369.553,6.913,6.913,0,0,1-1.621.185,4.776,4.776,0,0,1-1.835-.34,4.077,4.077,0,0,1-1.417-.96,4.411,4.411,0,0,1-.922-1.476,5.1,5.1,0,0,1-.33-1.863,5.422,5.422,0,0,1,.34-1.97A4.787,4.787,0,0,1,100.3,69.3a4,4,0,0,1,1.389-.99,4.314,4.314,0,0,1,1.738-.349,3.278,3.278,0,0,1,2.513.941,3.551,3.551,0,0,1,.884,2.534,5.8,5.8,0,0,1-.048.747,3.605,3.605,0,0,1-.145.671h-1.893c-.355,0-.721.006-1.1.019q-1.32.019-2.99.019Zm4.64-1.3v-.134a2.431,2.431,0,0,0-.485-1.58,1.867,1.867,0,0,0-1.534-.6,2.477,2.477,0,0,0-1.019.2,2.384,2.384,0,0,0-.777.539,2.625,2.625,0,0,0-.5.751,3.109,3.109,0,0,0-.243.857Zm7.6,5.474h-1.612V68.21l1.612-.251v1.572a4.052,4.052,0,0,1,1.048-1.155,2.406,2.406,0,0,1,1.436-.417,3.1,3.1,0,0,1,1.67.446l-.408,1.494a3.084,3.084,0,0,0-.728-.31,2.616,2.616,0,0,0-.689-.1,2,2,0,0,0-1.233.456,4.3,4.3,0,0,0-1.1,1.389ZM126.71,64.057c0,.014-.019.1-.059.252s-.083.323-.135.5-.1.345-.136.494a1.29,1.29,0,0,1-.059.205c-.206-.091-.44-.178-.7-.264a2.35,2.35,0,0,0-.718-.125,1.155,1.155,0,0,0-1,.437,2.493,2.493,0,0,0-.32,1.446v1.243H126.4l-.057,1.436h-2.757v7.454h-1.612V69.706l-1.553-.116.078-1.01,1.456-.427.019-1.126a5.474,5.474,0,0,1,.236-1.582,2.745,2.745,0,0,1,.6-1.048,2.3,2.3,0,0,1,.92-.583,3.693,3.693,0,0,1,1.2-.184,3.563,3.563,0,0,1,.981.135,5.458,5.458,0,0,1,.806.292M138.268,72.7a5.443,5.443,0,0,1-.33,1.942,4.449,4.449,0,0,1-.912,1.494,4.017,4.017,0,0,1-1.389.96,4.42,4.42,0,0,1-1.737.34,4.335,4.335,0,0,1-1.738-.34,3.937,3.937,0,0,1-1.349-.95,4.38,4.38,0,0,1-.884-1.5,5.684,5.684,0,0,1-.32-1.95,5.438,5.438,0,0,1,.33-1.942,4.583,4.583,0,0,1,.912-1.5,3.964,3.964,0,0,1,1.389-.97,4.472,4.472,0,0,1,1.757-.34,4.33,4.33,0,0,1,1.737.34,3.856,3.856,0,0,1,1.35.961,4.388,4.388,0,0,1,.873,1.494,5.841,5.841,0,0,1,.31,1.961m-1.572.019a4.6,4.6,0,0,0-.185-1.33,3.116,3.116,0,0,0-.543-1.058,2.571,2.571,0,0,0-.873-.7,2.637,2.637,0,0,0-1.174-.251,2.727,2.727,0,0,0-1.174.241,2.413,2.413,0,0,0-.864.68,2.971,2.971,0,0,0-.524,1.049,4.834,4.834,0,0,0-.175,1.329A4.5,4.5,0,0,0,131.367,74a3.088,3.088,0,0,0,.543,1.048,2.541,2.541,0,0,0,.873.7,2.637,2.637,0,0,0,1.174.252,2.736,2.736,0,0,0,1.176-.242,2.428,2.428,0,0,0,.863-.68,2.96,2.96,0,0,0,.524-1.039,4.686,4.686,0,0,0,.175-1.32m7.671,4.426h-1.612V68.21l1.612-.251v1.572a4.068,4.068,0,0,1,1.048-1.155,2.409,2.409,0,0,1,1.437-.417,3.1,3.1,0,0,1,1.669.446l-.408,1.494a3.065,3.065,0,0,0-.728-.31,2.61,2.61,0,0,0-.689-.1,2,2,0,0,0-1.233.456,4.319,4.319,0,0,0-1.1,1.389Zm19.264,0V71.576a2.528,2.528,0,0,0-.415-1.646,1.62,1.62,0,0,0-1.285-.477,2.554,2.554,0,0,0-1.294.321,4.894,4.894,0,0,0-.947.691v6.676h-1.612V71.576a2.52,2.52,0,0,0-.416-1.646,1.617,1.617,0,0,0-1.284-.477,2.926,2.926,0,0,0-1.295.273,3.723,3.723,0,0,0-.946.641v6.774h-1.612V68.21l1.612-.251-.02,1.207a4.068,4.068,0,0,1,2.854-1.207,2.668,2.668,0,0,1,1.389.364,2.37,2.37,0,0,1,.941,1.092,5.567,5.567,0,0,1,1.509-1.082,3.964,3.964,0,0,1,1.724-.374,2.528,2.528,0,0,1,1.967.815,3.29,3.29,0,0,1,.74,2.291v6.076Zm11.221-.95a3.723,3.723,0,0,1-1.112.922,2.807,2.807,0,0,1-1.324.32,3.276,3.276,0,0,1-1.142-.194,2.785,2.785,0,0,1-.9-.532,2.329,2.329,0,0,1-.58-.8,2.5,2.5,0,0,1-.2-1.009,2.776,2.776,0,0,1,.241-1.142,2.408,2.408,0,0,1,.842-.968,5.2,5.2,0,0,1,1.625-.708,12.281,12.281,0,0,1,2.572-.357v-.252a2.164,2.164,0,0,0-.454-1.549,2.1,2.1,0,0,0-1.537-.465,4.415,4.415,0,0,0-1.46.276,6.139,6.139,0,0,0-1.4.694l-.31-1.436a5.993,5.993,0,0,1,1.484-.719,5.679,5.679,0,0,1,1.854-.31,3.661,3.661,0,0,1,2.65.815,3.489,3.489,0,0,1,.787,2.641v3.727a1.162,1.162,0,0,0,.145.709q.145.164.728.165l-.1,1.34a2.633,2.633,0,0,1-1.622-.242,1.635,1.635,0,0,1-.707-.922Zm.019-3.476a8.3,8.3,0,0,0-2.78.708,1.406,1.406,0,0,0-.81,1.272,1.3,1.3,0,0,0,.415.99,1.613,1.613,0,0,0,1.148.389,2.37,2.37,0,0,0,1.13-.272,3.477,3.477,0,0,0,.9-.68Zm12.363,4.426V71.55a2.276,2.276,0,0,0-.443-1.611,1.878,1.878,0,0,0-1.384-.447,2.936,2.936,0,0,0-1.307.3,3.9,3.9,0,0,0-1,.668v6.679h-1.611V68.21l1.611-.251-.019,1.339a5,5,0,0,1,1.368-.981,3.491,3.491,0,0,1,1.525-.358,2.761,2.761,0,0,1,2.115.806,3.171,3.171,0,0,1,.757,2.261v6.115Zm10.428.292a4.81,4.81,0,0,1-1.864-.34,3.666,3.666,0,0,1-1.368-.97,4.286,4.286,0,0,1-.844-1.5,6.023,6.023,0,0,1-.292-1.922,5.294,5.294,0,0,1,.34-1.942,4.49,4.49,0,0,1,.931-1.494,4.072,4.072,0,0,1,1.418-.96,4.648,4.648,0,0,1,1.8-.34,6,6,0,0,1,1.562.185,4.761,4.761,0,0,1,1.311.573l-.408,1.456a4.37,4.37,0,0,0-2.465-.719,2.607,2.607,0,0,0-2.106.859,3.539,3.539,0,0,0-.728,2.363,3.485,3.485,0,0,0,.766,2.4,2.586,2.586,0,0,0,2.03.859,5.157,5.157,0,0,0,1.358-.179,4.113,4.113,0,0,0,1.2-.539l.291,1.475a5.508,5.508,0,0,1-2.93.738m8.135-4.467a3.384,3.384,0,0,0,.242,1.2,2.975,2.975,0,0,0,.6.935,2.654,2.654,0,0,0,.912.618,3.057,3.057,0,0,0,1.174.221,5.72,5.72,0,0,0,1.408-.179,4.048,4.048,0,0,0,1.252-.539l.291,1.475a4.67,4.67,0,0,1-1.368.553,6.92,6.92,0,0,1-1.621.185,4.772,4.772,0,0,1-1.835-.34,4.077,4.077,0,0,1-1.417-.96,4.414,4.414,0,0,1-.923-1.476,5.125,5.125,0,0,1-.33-1.863,5.446,5.446,0,0,1,.34-1.97,4.809,4.809,0,0,1,.922-1.525,4,4,0,0,1,1.389-.99,4.308,4.308,0,0,1,1.737-.349,3.28,3.28,0,0,1,2.514.941,3.556,3.556,0,0,1,.884,2.534,6.011,6.011,0,0,1-.048.747,3.6,3.6,0,0,1-.145.671h-1.893c-.356,0-.721.006-1.1.019q-1.32.019-2.99.019Zm4.64-1.3v-.134a2.438,2.438,0,0,0-.485-1.58,1.867,1.867,0,0,0-1.534-.6,2.482,2.482,0,0,0-1.02.2,2.4,2.4,0,0,0-.777.539,2.672,2.672,0,0,0-.5.751,3.107,3.107,0,0,0-.242.857Zm13.123,5.512-2.736-8.929h1.707l1.883,6.6,2.058-6.562h1.456L230.2,74.87l1.631-6.619H233.6l-2.679,8.929h-1.456l-2.272-6.638-2.174,6.638Zm15.877-12.036a1.331,1.331,0,0,1-.252.8,1.084,1.084,0,0,1-1.593,0,1.382,1.382,0,0,1,0-1.593,1.082,1.082,0,0,1,1.593,0,1.328,1.328,0,0,1,.252.8m-1.845,12V68.21l1.612-.251v9.182Zm11.47-.1a5.54,5.54,0,0,1-2,.389,2.661,2.661,0,0,1-1.96-.66,2.791,2.791,0,0,1-.622-2.117l.136-4.969-1.475-.1.059-1.01,1.475-.446.038-1.922h1.534l-.059,2.039h2.777l-.059,1.436h-2.776l-.136,5.028q-.039,1.263,1.164,1.262a3.864,3.864,0,0,0,.816-.088,4.943,4.943,0,0,0,.8-.242c.014,0,.033.072.059.214s.057.3.1.485c.052.207.1.441.136.7m9.875.1V71.55a2.319,2.319,0,0,0-.433-1.611,1.731,1.731,0,0,0-1.3-.447,3.17,3.17,0,0,0-1.394.3,3.869,3.869,0,0,0-1.01.668v6.679H253.19V64.057L254.8,63.8l-.019,5.456a4.611,4.611,0,0,1,1.378-.96,3.871,3.871,0,0,1,1.611-.34,2.629,2.629,0,0,1,2.029.806,3.2,3.2,0,0,1,.748,2.261v6.115ZM273.622,72.7a5.468,5.468,0,0,1-.33,1.942,4.469,4.469,0,0,1-.913,1.494,4.023,4.023,0,0,1-1.387.96,4.428,4.428,0,0,1-1.737.34,4.331,4.331,0,0,1-1.738-.34,3.941,3.941,0,0,1-1.35-.95,4.4,4.4,0,0,1-.884-1.5,5.684,5.684,0,0,1-.32-1.95,5.464,5.464,0,0,1,.33-1.942,4.585,4.585,0,0,1,.913-1.5,3.949,3.949,0,0,1,1.387-.97,4.478,4.478,0,0,1,1.758-.34,4.333,4.333,0,0,1,1.737.34,3.862,3.862,0,0,1,1.349.961,4.37,4.37,0,0,1,.873,1.494,5.811,5.811,0,0,1,.311,1.961m-1.573.019a4.637,4.637,0,0,0-.184-1.33,3.115,3.115,0,0,0-.543-1.058,2.574,2.574,0,0,0-.875-.7,2.63,2.63,0,0,0-1.174-.251,2.731,2.731,0,0,0-1.174.241,2.419,2.419,0,0,0-.863.68,2.952,2.952,0,0,0-.524,1.049,4.791,4.791,0,0,0-.175,1.329A4.461,4.461,0,0,0,266.722,74a3.068,3.068,0,0,0,.543,1.048,2.537,2.537,0,0,0,.872.7,2.644,2.644,0,0,0,1.174.252,2.732,2.732,0,0,0,1.176-.242,2.409,2.409,0,0,0,.863-.68,2.981,2.981,0,0,0,.525-1.039,4.727,4.727,0,0,0,.174-1.32m7.6-4.464v5.59a2.3,2.3,0,0,0,.433,1.611,1.726,1.726,0,0,0,1.3.447,3.175,3.175,0,0,0,1.4-.3,3.836,3.836,0,0,0,1.009-.671V68.251H285.4v8.929l-1.612.254v-1.3a4.6,4.6,0,0,1-1.373.96,3.868,3.868,0,0,1-1.606.34,2.621,2.621,0,0,1-2.022-.806,3.2,3.2,0,0,1-.744-2.262V68.251Zm15.609,8.793a5.539,5.539,0,0,1-2,.389,2.662,2.662,0,0,1-1.961-.66,2.791,2.791,0,0,1-.621-2.117l.136-4.969-1.476-.1.059-1.01,1.475-.446.039-1.922h1.533l-.059,2.039h2.777l-.059,1.436h-2.776l-.136,5.028q-.039,1.263,1.164,1.262a3.856,3.856,0,0,0,.816-.088,4.909,4.909,0,0,0,.8-.242c.014,0,.033.072.059.214s.059.3.1.485c.052.207.1.441.136.7m17.782-4.386a5.266,5.266,0,0,1-.329,1.882,4.469,4.469,0,0,1-.929,1.514,4.343,4.343,0,0,1-1.431,1.01,4.432,4.432,0,0,1-1.82.37,6.889,6.889,0,0,1-.939-.078,6.024,6.024,0,0,1-.977-.214L305,77.433V64.057l1.612-.254L306.6,69.08a5.53,5.53,0,0,1,1.086-.787,2.822,2.822,0,0,1,1.4-.335,3.77,3.77,0,0,1,1.669.358,3.669,3.669,0,0,1,1.252.991,4.325,4.325,0,0,1,.777,1.484,6.34,6.34,0,0,1,.261,1.865m-1.65.048a3.737,3.737,0,0,0-.7-2.362,2.318,2.318,0,0,0-1.934-.89,2.916,2.916,0,0,0-1.16.232,3.76,3.76,0,0,0-.986.62v5.051a3.042,3.042,0,0,0,1.972.639,2.641,2.641,0,0,0,1.2-.261,2.6,2.6,0,0,0,.879-.707,3.057,3.057,0,0,0,.541-1.045,4.331,4.331,0,0,0,.184-1.277m14.257-.01a5.468,5.468,0,0,1-.33,1.942,4.435,4.435,0,0,1-.914,1.494,4.008,4.008,0,0,1-1.386.96,4.427,4.427,0,0,1-1.739.34,4.329,4.329,0,0,1-1.737-.34,3.937,3.937,0,0,1-1.349-.95,4.4,4.4,0,0,1-.885-1.5,5.684,5.684,0,0,1-.32-1.95,5.464,5.464,0,0,1,.33-1.942,4.6,4.6,0,0,1,.913-1.5,3.96,3.96,0,0,1,1.387-.97,4.477,4.477,0,0,1,1.757-.34,4.345,4.345,0,0,1,1.739.34,3.873,3.873,0,0,1,1.349.961,4.425,4.425,0,0,1,.873,1.494,5.812,5.812,0,0,1,.311,1.961m-1.574.019a4.637,4.637,0,0,0-.183-1.33,3.136,3.136,0,0,0-.543-1.058,2.6,2.6,0,0,0-.875-.7,2.639,2.639,0,0,0-1.176-.251,2.722,2.722,0,0,0-1.173.241,2.423,2.423,0,0,0-.864.68,2.971,2.971,0,0,0-.524,1.049,4.791,4.791,0,0,0-.175,1.329A4.46,4.46,0,0,0,318.745,74a3.068,3.068,0,0,0,.543,1.048,2.531,2.531,0,0,0,.873.7,2.639,2.639,0,0,0,1.176.252,2.722,2.722,0,0,0,1.173-.242,2.422,2.422,0,0,0,.864-.68,2.96,2.96,0,0,0,.524-1.039,4.687,4.687,0,0,0,.174-1.32m7.671,4.426h-1.612V68.21l1.612-.251v1.572a4.071,4.071,0,0,1,1.049-1.155,2.4,2.4,0,0,1,1.436-.417,3.1,3.1,0,0,1,1.67.446l-.408,1.494a3.085,3.085,0,0,0-.728-.31,2.618,2.618,0,0,0-.69-.1,2,2,0,0,0-1.232.456,4.321,4.321,0,0,0-1.1,1.389Zm13.778-13.084,1.611-.254V77.141h-1.611l.019-.83a5.472,5.472,0,0,1-1.088.787,2.836,2.836,0,0,1-1.4.335,3.746,3.746,0,0,1-1.668-.36,3.646,3.646,0,0,1-1.253-.99,4.334,4.334,0,0,1-.777-1.487,6.349,6.349,0,0,1-.263-1.863,5.318,5.318,0,0,1,.329-1.883,4.534,4.534,0,0,1,.93-1.515,4.374,4.374,0,0,1,1.431-1.009,4.445,4.445,0,0,1,1.82-.369,6.431,6.431,0,0,1,.986.078,6.032,6.032,0,0,1,.93.214Zm-1.971,5.338a2.639,2.639,0,0,0-1.2.263,2.61,2.61,0,0,0-.879.707,3.124,3.124,0,0,0-.542,1.044,4.379,4.379,0,0,0-.184,1.278,3.733,3.733,0,0,0,.7,2.362,2.319,2.319,0,0,0,1.934.889,2.925,2.925,0,0,0,1.161-.231,3.772,3.772,0,0,0,.985-.62V70.035a2.992,2.992,0,0,0-1.971-.64m9.67,3.572a3.36,3.36,0,0,0,.242,1.2,2.992,2.992,0,0,0,.6.935,2.675,2.675,0,0,0,.912.618,3.067,3.067,0,0,0,1.176.221,5.717,5.717,0,0,0,1.407-.179,4.054,4.054,0,0,0,1.253-.539l.291,1.475a4.682,4.682,0,0,1-1.368.553,6.93,6.93,0,0,1-1.622.185,4.776,4.776,0,0,1-1.835-.34,4.088,4.088,0,0,1-1.417-.96,4.411,4.411,0,0,1-.922-1.476,5.125,5.125,0,0,1-.33-1.863,5.445,5.445,0,0,1,.34-1.97,4.768,4.768,0,0,1,.922-1.525,3.989,3.989,0,0,1,1.389-.99A4.308,4.308,0,0,1,356,67.959a3.282,3.282,0,0,1,2.514.941,3.555,3.555,0,0,1,.882,2.534,5.8,5.8,0,0,1-.048.747,3.516,3.516,0,0,1-.145.671h-1.892c-.357,0-.722.006-1.1.019q-1.319.019-2.989.019Zm4.64-1.3v-.134a2.432,2.432,0,0,0-.486-1.58,1.866,1.866,0,0,0-1.534-.6,2.477,2.477,0,0,0-1.019.2,2.4,2.4,0,0,0-.777.539,2.649,2.649,0,0,0-.5.751,3.03,3.03,0,0,0-.242.857Zm7.6,5.474h-1.612V68.21l1.612-.251v1.572a4.07,4.07,0,0,1,1.049-1.155,2.4,2.4,0,0,1,1.436-.417,3.093,3.093,0,0,1,1.669.446L369.21,69.9a3.085,3.085,0,0,0-.728-.31,2.618,2.618,0,0,0-.69-.1,2,2,0,0,0-1.232.456,4.321,4.321,0,0,0-1.1,1.389Zm13.946-2.523a2.568,2.568,0,0,1-.252,1.154,2.728,2.728,0,0,1-.7.894,3.152,3.152,0,0,1-1.057.583,4.272,4.272,0,0,1-1.349.2,6.362,6.362,0,0,1-1.65-.224,5.273,5.273,0,0,1-1.456-.611l.407-1.456a4.579,4.579,0,0,0,1.311.611A4.938,4.938,0,0,0,376.09,76a2.255,2.255,0,0,0,1.262-.33,1.051,1.051,0,0,0,.5-.931.884.884,0,0,0-.184-.564,1.613,1.613,0,0,0-.476-.4,3.371,3.371,0,0,0-.671-.282c-.251-.078-.508-.156-.766-.233a9.381,9.381,0,0,1-.941-.33,3.483,3.483,0,0,1-.854-.494,2.336,2.336,0,0,1-.612-.739,2.172,2.172,0,0,1-.232-1.038,2.492,2.492,0,0,1,.242-1.116,2.451,2.451,0,0,1,.678-.845,3.308,3.308,0,0,1,1.02-.543,3.9,3.9,0,0,1,1.242-.194,6.581,6.581,0,0,1,1.515.175,6.291,6.291,0,0,1,1.359.486l-.408,1.456a5.167,5.167,0,0,0-1.271-.486,5.388,5.388,0,0,0-1.271-.175,2.054,2.054,0,0,0-1.146.282.923.923,0,0,0-.427.824.914.914,0,0,0,.166.544,1.3,1.3,0,0,0,.446.388,3.576,3.576,0,0,0,.659.273c.254.077.515.154.787.233a9.486,9.486,0,0,1,.972.329,3.416,3.416,0,0,1,.862.495,2.406,2.406,0,0,1,.622.747,2.248,2.248,0,0,1,.242,1.088"
          transform="translate(11.124 8.085)"/>
</svg>