<?xml version="1.0" encoding="UTF-8" standalone="no"?>
<!-- Created with Inkscape (http://www.inkscape.org/) -->
<svg
   xmlns:svg="http://www.w3.org/2000/svg"
   xmlns="http://www.w3.org/2000/svg"
   version="1.0"
   width="653"
   height="463"
   viewBox="-0.489 -0.642 653 463"
   id="svg2"
   xml:space="preserve">
	<defs
   id="defs4">
	</defs>
	<g
   id="g6">
		<rect
   width="28.799"
   height="98.637001"
   x="368.10901"
   y="19.801001"
   id="rect8" /> 
		
			<rect
   width="29.52"
   height="99.357002"
   x="367.388"
   y="19.080999"
   style="fill:none;stroke:#000000;stroke-width:0.72000003;stroke-linecap:round;stroke-linejoin:round;stroke-miterlimit:10"
   id="rect10" /> 
		<rect
   width="29.52"
   height="160.55901"
   x="235.62801"
   y="1.081"
   id="rect12" /> 
		
			<rect
   width="30.24"
   height="161.27901"
   x="234.908"
   y="0.36000001"
   style="fill:none;stroke:#000000;stroke-width:0.72000003;stroke-linecap:round;stroke-linejoin:round;stroke-miterlimit:10"
   id="rect14" /> 
		<rect
   width="161.27901"
   height="29.52"
   x="235.62801"
   y="132.12"
   id="rect16" /> 
		
			<rect
   width="162"
   height="30.24"
   x="234.908"
   y="131.399"
   style="fill:none;stroke:#000000;stroke-width:0.72000003;stroke-linecap:round;stroke-linejoin:round;stroke-miterlimit:10"
   id="rect18" /> 
		<rect
   width="28.077999"
   height="98.637001"
   x="284.58899"
   y="19.801001"
   id="rect20" /> 
		
			<rect
   width="28.799"
   height="99.357002"
   x="283.86899"
   y="19.080999"
   style="fill:none;stroke:#000000;stroke-width:0.72000003;stroke-linecap:round;stroke-linejoin:round;stroke-miterlimit:10"
   id="rect22" /> 
		<rect
   width="28.077999"
   height="98.637001"
   x="326.349"
   y="19.801001"
   id="rect24" /> 
		
			<rect
   width="28.799"
   height="99.357002"
   x="325.62799"
   y="19.080999"
   style="fill:none;stroke:#000000;stroke-width:0.72000003;stroke-linecap:round;stroke-linejoin:round;stroke-miterlimit:10"
   id="rect26" /> 
		<rect
   width="112.318"
   height="28.799"
   x="284.58899"
   y="89.639"
   id="rect28" /> 
		
			<rect
   width="113.039"
   height="29.52"
   x="283.86899"
   y="88.917999"
   style="fill:none;stroke:#000000;stroke-width:0.72000003;stroke-linecap:round;stroke-linejoin:round;stroke-miterlimit:10"
   id="rect30" /> 
		<polygon
   points="283.869,173.879 312.667,173.879 312.667,245.159 325.628,245.159 325.628,173.879 355.148,173.879 355.148,245.159 367.388,245.159 367.388,173.879 396.908,173.879 396.908,275.399 283.869,275.399 283.869,173.879 "
   style="fill:#ffd900;fill-rule:evenodd"
   id="polygon32" />
		
			<polygon
   points="283.869,173.879 312.667,173.879 312.667,245.159 325.628,245.159 325.628,173.879 355.148,173.879 355.148,245.159 367.388,245.159 367.388,173.879 396.908,173.879 396.908,275.399 283.869,275.399 283.869,173.879 "
   style="fill:none;stroke:#ffd900;stroke-width:0.72000003;stroke-linecap:round;stroke-linejoin:round;stroke-miterlimit:10"
   id="polygon34" />
		<path
   d="M 0.825,390.732 L 0.825,338.482 L 7.7,338.482 L 7.7,384.545 L 33.412,384.545 L 33.412,390.733 L 0.825,390.733 L 0.825,390.732 z "
   id="path36" />
		<path
   d="M 41.898,390.732 L 41.898,338.482 L 79.436,338.482 L 79.436,344.67 L 48.773,344.67 L 48.773,360.62 L 77.51,360.62 L 77.51,366.808 L 48.773,366.808 L 48.773,384.545 L 80.673,384.545 L 80.673,390.733 L 41.898,390.733 L 41.898,390.732 z "
   id="path38" />
		<path
   d="M 88.174,365.3 C 88.174,356.654 90.492,349.887 95.132,344.995 C 99.771,340.104 105.758,337.658 113.097,337.658 C 117.901,337.658 122.23,338.807 126.089,341.103 C 129.947,343.402 132.889,346.606 134.913,350.715 C 136.936,354.825 137.949,359.486 137.949,364.695 C 137.949,369.977 136.883,374.704 134.754,378.872 C 132.623,383.043 129.607,386.198 125.7,388.343 C 121.794,390.488 117.581,391.557 113.061,391.557 C 108.161,391.557 103.782,390.373 99.923,388.003 C 96.065,385.636 93.143,382.402 91.155,378.303 C 89.167,374.207 88.174,369.871 88.174,365.3 z M 95.324,365.39 C 95.324,371.668 97.004,376.614 100.368,380.227 C 103.732,383.841 107.952,385.646 113.027,385.646 C 118.194,385.646 122.448,383.822 125.789,380.173 C 129.127,376.526 130.799,371.35 130.799,364.645 C 130.799,360.404 130.083,356.702 128.657,353.54 C 127.228,350.378 125.14,347.924 122.39,346.184 C 119.64,344.444 116.553,343.572 113.132,343.572 C 108.268,343.572 104.085,345.25 100.581,348.601 C 97.075,351.951 95.324,357.548 95.324,365.39 z "
   id="path40" />
		<path
   d="M 146.803,390.732 L 146.803,338.482 L 153.869,338.482 L 181.452,379.544 L 181.452,338.482 L 188.052,338.482 L 188.052,390.732 L 180.986,390.732 L 153.402,349.673 L 153.402,390.732 L 146.803,390.732 L 146.803,390.732 z "
   id="path42" />
		<path
   d="M 199.856,390.732 L 199.856,338.482 L 206.731,338.482 L 206.731,359.932 L 233.818,359.932 L 233.818,338.482 L 240.693,338.482 L 240.693,390.732 L 233.818,390.732 L 233.818,366.12 L 206.731,366.12 L 206.731,390.732 L 199.856,390.732 z "
   id="path44" />
		<path
   d="M 246.602,390.732 L 266.505,338.482 L 274.155,338.482 L 295.289,390.732 L 287.421,390.732 L 281.455,374.919 L 259.511,374.919 L 253.871,390.732 L 246.602,390.732 z M 261.471,369.283 L 279.383,369.283 L 273.896,354.77 C 272.271,350.359 271.028,346.717 270.166,343.845 C 269.459,347.272 268.486,350.629 267.244,353.921 L 261.471,369.283 z "
   id="path46" />
		<path
   d="M 301.111,390.732 L 301.111,338.482 L 324.142,338.482 C 328.769,338.482 332.289,338.953 334.699,339.889 C 337.107,340.828 339.033,342.485 340.474,344.859 C 341.913,347.235 342.635,349.858 342.635,352.731 C 342.635,356.437 341.441,359.561 339.056,362.1 C 336.671,364.642 332.987,366.257 328.002,366.945 C 329.828,367.822 331.214,368.687 332.163,369.541 C 334.179,371.391 336.08,373.711 337.869,376.504 L 346.869,390.733 L 338.241,390.733 L 331.368,379.856 C 329.359,376.719 327.705,374.317 326.407,372.652 C 325.107,370.989 323.943,369.821 322.916,369.15 C 321.889,368.48 320.843,368.011 319.781,367.748 C 319.001,367.58 317.725,367.496 315.955,367.496 L 307.984,367.496 L 307.984,390.733 L 301.111,390.733 L 301.111,390.732 z M 307.986,361.308 L 322.76,361.308 C 325.901,361.308 328.35,360.986 330.108,360.341 C 331.865,359.696 333.2,358.665 334.115,357.247 C 335.028,355.829 335.485,354.289 335.485,352.624 C 335.485,350.187 334.598,348.186 332.826,346.614 C 331.052,345.044 328.252,344.258 324.425,344.258 L 307.986,344.258 L 307.986,361.308 z "
   id="path48" />
		<path
   d="M 353.477,390.732 L 353.477,338.482 L 371.466,338.482 C 375.527,338.482 378.626,338.732 380.764,339.23 C 383.755,339.919 386.31,341.168 388.423,342.972 C 391.178,345.301 393.236,348.279 394.603,351.902 C 395.969,355.526 396.652,359.666 396.652,364.322 C 396.652,368.292 396.188,371.809 395.262,374.873 C 394.336,377.938 393.148,380.477 391.699,382.482 C 390.252,384.489 388.666,386.07 386.945,387.222 C 385.221,388.375 383.144,389.249 380.71,389.843 C 378.276,390.436 375.479,390.732 372.32,390.732 L 353.477,390.732 z M 360.352,384.545 L 371.507,384.545 C 374.95,384.545 377.653,384.226 379.612,383.585 C 381.572,382.944 383.133,382.042 384.298,380.878 C 385.938,379.241 387.214,377.041 388.129,374.275 C 389.044,371.51 389.502,368.157 389.502,364.216 C 389.502,358.757 388.604,354.561 386.81,351.63 C 385.016,348.7 382.837,346.734 380.273,345.737 C 378.419,345.026 375.436,344.669 371.329,344.669 L 360.352,344.669 L 360.352,384.545 z "
   id="path50" />
		<path
   d="M 435.656,390.732 L 421.879,338.482 L 428.983,338.482 L 436.864,372.756 C 437.766,376.335 438.524,379.893 439.135,383.425 C 440.485,377.833 441.277,374.608 441.513,373.751 L 451.508,338.481 L 459.842,338.481 L 467.24,364.944 C 469.125,371.501 470.527,377.663 471.447,383.424 C 472.135,380.135 472.987,376.345 474.008,372.053 L 482.129,338.481 L 489.254,338.481 L 475.139,390.731 L 468.073,390.731 L 457.168,350.9 C 456.257,347.57 455.698,345.534 455.496,344.791 C 454.933,347.182 454.418,349.221 453.954,350.909 L 442.847,390.732 L 435.656,390.732 L 435.656,390.732 z "
   id="path52" />
		<path
   d="M 495.788,390.732 L 495.788,338.482 L 533.325,338.482 L 533.325,344.67 L 502.663,344.67 L 502.663,360.62 L 531.4,360.62 L 531.4,366.808 L 502.663,366.808 L 502.663,384.545 L 534.563,384.545 L 534.563,390.733 L 495.788,390.733 L 495.788,390.732 z "
   id="path54" />
		<path
   d="M 545.364,390.732 L 545.364,338.482 L 552.239,338.482 L 552.239,390.732 L 545.364,390.732 z "
   id="path56" />
		<path
   d="M 561.995,373.82 L 568.458,373.27 C 568.765,375.895 569.482,378.05 570.608,379.732 C 571.734,381.415 573.48,382.775 575.85,383.812 C 578.217,384.852 580.884,385.37 583.846,385.37 C 586.476,385.37 588.796,384.977 590.812,384.188 C 592.825,383.402 594.323,382.321 595.306,380.949 C 596.29,379.578 596.783,378.094 596.783,376.497 C 596.783,374.877 596.31,373.464 595.367,372.254 C 594.422,371.047 592.857,370.028 590.671,369.199 C 589.266,368.657 586.163,367.813 581.361,366.666 C 576.557,365.519 573.199,364.436 571.287,363.413 C 568.808,362.107 566.96,360.487 565.744,358.552 C 564.528,356.615 563.92,354.448 563.92,352.05 C 563.92,349.414 564.666,346.95 566.161,344.657 C 567.654,342.367 569.835,340.627 572.705,339.438 C 575.573,338.252 578.762,337.658 582.272,337.658 C 586.137,337.658 589.546,338.285 592.499,339.538 C 595.451,340.79 597.72,342.634 599.31,345.065 C 600.898,347.5 601.75,350.255 601.871,353.333 L 595.271,353.883 C 594.915,350.574 593.707,348.073 591.651,346.383 C 589.592,344.692 586.557,343.846 582.54,343.846 C 578.354,343.846 575.306,344.609 573.392,346.134 C 571.478,347.659 570.522,349.496 570.522,351.647 C 570.522,353.516 571.199,355.052 572.554,356.257 C 573.886,357.464 577.363,358.699 582.985,359.963 C 588.607,361.229 592.458,362.335 594.535,363.28 C 597.556,364.676 599.786,366.444 601.225,368.585 C 602.664,370.725 603.384,373.19 603.384,375.981 C 603.384,378.749 602.591,381.357 601.008,383.806 C 599.422,386.255 597.147,388.159 594.18,389.518 C 591.213,390.876 587.874,391.557 584.162,391.557 C 579.457,391.557 575.515,390.866 572.335,389.484 C 569.155,388.1 566.66,386.021 564.852,383.243 C 563.042,380.468 562.089,377.326 561.995,373.82 z "
   id="path58" />
		<path
   d="M 610.609,373.82 L 617.071,373.27 C 617.379,375.895 618.096,378.05 619.222,379.732 C 620.347,381.415 622.094,382.775 624.464,383.812 C 626.831,384.852 629.497,385.37 632.46,385.37 C 635.09,385.37 637.41,384.977 639.425,384.188 C 641.439,383.402 642.936,382.321 643.92,380.949 C 644.903,379.578 645.396,378.094 645.396,376.497 C 645.396,374.877 644.923,373.464 643.98,372.254 C 643.035,371.047 641.471,370.028 639.284,369.199 C 637.879,368.657 634.777,367.813 629.975,366.666 C 625.17,365.519 621.813,364.436 619.901,363.413 C 617.422,362.107 615.574,360.487 614.358,358.552 C 613.142,356.615 612.534,354.448 612.534,352.05 C 612.534,349.414 613.279,346.95 614.775,344.657 C 616.268,342.367 618.449,340.627 621.319,339.438 C 624.187,338.252 627.376,337.658 630.885,337.658 C 634.75,337.658 638.16,338.285 641.112,339.538 C 644.064,340.79 646.333,342.634 647.923,345.065 C 649.511,347.5 650.364,350.255 650.485,353.333 L 643.884,353.883 C 643.528,350.574 642.321,348.073 640.264,346.383 C 638.206,344.692 635.17,343.846 631.153,343.846 C 626.968,343.846 623.92,344.609 622.006,346.134 C 620.091,347.659 619.135,349.496 619.135,351.647 C 619.135,353.516 619.812,355.052 621.168,356.257 C 622.5,357.464 625.976,358.699 631.599,359.963 C 637.221,361.229 641.071,362.335 643.149,363.28 C 646.17,364.676 648.4,366.444 649.839,368.585 C 651.278,370.725 651.998,373.19 651.998,375.981 C 651.998,378.749 651.205,381.357 649.621,383.806 C 648.036,386.255 645.761,388.159 642.794,389.518 C 639.827,390.876 636.488,391.557 632.775,391.557 C 628.07,391.557 624.128,390.866 620.948,389.484 C 617.768,388.1 615.274,386.021 613.466,383.243 C 611.655,380.468 610.704,377.326 610.609,373.82 z "
   id="path60" />
		<path
   d="M 0,461.219 L 0,417.15 L 16.498,417.15 C 19.857,417.15 22.551,417.596 24.581,418.488 C 26.61,419.38 28.2,420.753 29.35,422.607 C 30.499,424.461 31.075,426.401 31.075,428.424 C 31.075,430.309 30.567,432.083 29.551,433.746 C 28.535,435.408 27.001,436.751 24.949,437.774 C 27.601,438.555 29.64,439.887 31.067,441.77 C 32.494,443.654 33.207,445.877 33.207,448.443 C 33.207,450.507 32.772,452.426 31.902,454.199 C 31.032,455.973 29.958,457.34 28.677,458.303 C 27.397,459.265 25.792,459.991 23.863,460.481 C 21.934,460.973 19.569,461.218 16.77,461.218 L 0,461.218 L 0,461.219 z M 5.844,435.644 L 15.352,435.644 C 17.93,435.644 19.78,435.474 20.9,435.135 C 22.379,434.697 23.494,433.966 24.244,432.947 C 24.994,431.928 25.369,430.653 25.369,429.114 C 25.369,427.656 25.019,426.373 24.32,425.264 C 23.62,424.156 22.621,423.397 21.321,422.989 C 20.021,422.579 17.791,422.375 14.633,422.375 L 5.844,422.375 L 5.844,435.644 z M 5.844,455.994 L 16.805,455.994 C 18.686,455.994 20.007,455.923 20.769,455.783 C 22.11,455.543 23.231,455.142 24.132,454.582 C 25.032,454.023 25.774,453.207 26.354,452.138 C 26.934,451.068 27.225,449.832 27.225,448.432 C 27.225,446.79 26.801,445.366 25.952,444.154 C 25.103,442.945 23.933,442.094 22.445,441.604 C 20.955,441.114 18.811,440.87 16.011,440.87 L 5.844,440.87 L 5.844,455.994 z "
   id="path62" />
		<path
   d="M 36.442,461.219 L 53.258,417.151 L 59.677,417.151 L 77.654,461.219 L 71.016,461.219 L 65.917,447.881 L 47.395,447.881 L 42.624,461.219 L 36.442,461.219 z M 49.114,443.138 L 64.082,443.138 L 59.539,430.903 C 58.117,427.206 57.049,424.133 56.338,421.688 C 55.725,424.571 54.911,427.405 53.896,430.189 L 49.114,443.138 z "
   id="path64" />
		<path
   d="M 111.165,417.15 L 117.009,417.15 L 117.009,442.613 C 117.009,447.043 116.508,450.56 115.506,453.166 C 114.504,455.772 112.696,457.891 110.081,459.523 C 107.466,461.158 104.037,461.974 99.789,461.974 C 95.662,461.974 92.286,461.261 89.661,459.839 C 87.036,458.416 85.162,456.359 84.041,453.662 C 82.92,450.965 82.359,447.283 82.359,442.612 L 82.359,417.15 L 88.203,417.15 L 88.203,442.606 C 88.203,446.439 88.557,449.262 89.268,451.078 C 89.978,452.893 91.199,454.292 92.93,455.276 C 94.66,456.257 96.777,456.75 99.279,456.75 C 103.561,456.75 106.612,455.776 108.433,453.83 C 110.254,451.886 111.165,448.143 111.165,442.606 L 111.165,417.15 L 111.165,417.15 z "
   id="path66" />
		<path
   d="M 155.54,417.15 L 161.384,417.15 L 161.384,442.613 C 161.384,447.043 160.882,450.56 159.881,453.166 C 158.879,455.772 157.071,457.891 154.456,459.523 C 151.841,461.158 148.412,461.974 144.164,461.974 C 140.037,461.974 136.661,461.261 134.036,459.839 C 131.411,458.416 129.537,456.359 128.416,453.662 C 127.295,450.965 126.734,447.283 126.734,442.612 L 126.734,417.15 L 132.578,417.15 L 132.578,442.606 C 132.578,446.439 132.932,449.262 133.643,451.078 C 134.353,452.893 135.573,454.292 137.305,455.276 C 139.035,456.257 141.152,456.75 143.654,456.75 C 147.936,456.75 150.987,455.776 152.808,453.83 C 154.629,451.886 155.54,448.143 155.54,442.606 L 155.54,417.15 L 155.54,417.15 z "
   id="path68" />
		<path
   d="M 170.972,461.219 L 170.972,417.15 L 176.934,417.15 L 200.191,451.787 L 200.191,417.15 L 205.76,417.15 L 205.76,461.218 L 199.798,461.218 L 176.541,426.581 L 176.541,461.218 L 170.972,461.218 L 170.972,461.219 z "
   id="path70" />
		<path
   d="M 226.622,461.219 L 226.622,422.375 L 212.116,422.375 L 212.116,417.15 L 246.972,417.15 L 246.972,422.375 L 232.466,422.375 L 232.466,461.219 L 226.622,461.219 z "
   id="path72" />
		<path
   d="M 253.208,461.219 L 253.208,417.15 L 284.971,417.15 L 284.971,422.375 L 259.052,422.375 L 259.052,435.781 L 283.321,435.781 L 283.321,441.006 L 259.052,441.006 L 259.052,455.994 L 286.002,455.994 L 286.002,461.219 L 253.208,461.219 L 253.208,461.219 z "
   id="path74" />
		<path
   d="M 294.113,461.219 L 294.113,417.15 L 313.644,417.15 C 317.566,417.15 320.548,417.545 322.589,418.336 C 324.631,419.127 326.261,420.524 327.481,422.525 C 328.702,424.527 329.313,426.738 329.313,429.162 C 329.313,432.286 328.302,434.918 326.281,437.059 C 324.26,439.2 321.138,440.563 316.916,441.143 C 318.457,441.884 319.627,442.617 320.429,443.339 C 322.13,444.904 323.737,446.86 325.252,449.208 L 332.87,461.218 L 325.591,461.218 L 319.768,452.037 C 318.066,449.389 316.665,447.362 315.566,445.957 C 314.465,444.555 313.479,443.57 312.608,443.008 C 311.738,442.447 310.853,442.056 309.953,441.835 C 309.292,441.695 308.211,441.624 306.711,441.624 L 299.958,441.624 L 299.958,461.218 L 294.113,461.218 L 294.113,461.219 z M 299.957,436.606 L 312.474,436.606 C 315.136,436.606 317.219,436.331 318.725,435.779 C 320.231,435.229 321.375,434.345 322.158,433.134 C 322.94,431.922 323.332,430.605 323.332,429.183 C 323.332,427.099 322.575,425.386 321.06,424.043 C 319.545,422.7 317.154,422.03 313.884,422.03 L 299.957,422.03 L 299.957,436.606 L 299.957,436.606 z "
   id="path76" />
		<path
   d="M 338.35,461.219 L 338.35,417.15 L 344.312,417.15 L 367.569,451.787 L 367.569,417.15 L 373.137,417.15 L 373.137,461.218 L 367.175,461.218 L 343.918,426.581 L 343.918,461.218 L 338.35,461.218 L 338.35,461.219 z "
   id="path78" />
		<path
   d="M 383,461.219 L 383,417.15 L 414.763,417.15 L 414.763,422.375 L 388.844,422.375 L 388.844,435.781 L 413.114,435.781 L 413.114,441.006 L 388.844,441.006 L 388.844,455.994 L 415.794,455.994 L 415.794,461.219 L 383,461.219 L 383,461.219 z "
   id="path80" />
		<path
   d="M 424.042,461.219 L 424.042,417.15 L 429.886,417.15 L 429.886,435.231 L 452.711,435.231 L 452.711,417.15 L 458.555,417.15 L 458.555,461.218 L 452.711,461.218 L 452.711,440.455 L 429.886,440.455 L 429.886,461.218 L 424.042,461.218 L 424.042,461.219 z "
   id="path82" />
		<path
   d="M 468.005,461.219 L 468.005,417.15 L 476.739,417.15 L 487.234,448.335 C 488.202,451.239 488.908,453.413 489.351,454.856 C 489.853,453.252 490.635,450.9 491.699,447.795 L 502.268,417.15 L 510.148,417.15 L 510.148,461.218 L 504.51,461.218 L 504.51,424.3 L 491.656,461.219 L 486.408,461.219 L 473.641,423.682 L 473.641,461.219 L 468.005,461.219 z "
   id="path84" />
		<path
   d="M 548.343,417.15 L 554.187,417.15 L 554.187,442.613 C 554.187,447.043 553.686,450.56 552.685,453.166 C 551.682,455.772 549.874,457.891 547.26,459.523 C 544.645,461.158 541.215,461.974 536.967,461.974 C 532.84,461.974 529.464,461.261 526.84,459.839 C 524.214,458.416 522.341,456.359 521.219,453.662 C 520.098,450.966 519.537,447.283 519.537,442.612 L 519.537,417.15 L 525.381,417.15 L 525.381,442.606 C 525.381,446.439 525.735,449.262 526.446,451.078 C 527.156,452.893 528.377,454.292 530.108,455.276 C 531.838,456.257 533.955,456.75 536.457,456.75 C 540.739,456.75 543.79,455.776 545.611,453.83 C 547.432,451.886 548.342,448.143 548.342,442.606 L 548.342,417.15 L 548.343,417.15 z "
   id="path86" />
		<path
   d="M 563.775,461.219 L 563.775,417.15 L 569.737,417.15 L 592.994,451.787 L 592.994,417.15 L 598.562,417.15 L 598.562,461.218 L 592.6,461.218 L 569.343,426.581 L 569.343,461.218 L 563.775,461.218 L 563.775,461.219 z "
   id="path88" />
		<path
   d="M 628.843,443.963 L 628.843,438.737 L 647.475,438.737 L 647.475,455.091 C 644.613,457.374 641.661,459.093 638.62,460.244 C 635.578,461.396 632.458,461.973 629.257,461.973 C 624.934,461.973 621.008,461.045 617.476,459.191 C 613.944,457.337 611.277,454.658 609.476,451.15 C 607.676,447.641 606.776,443.722 606.776,439.393 C 606.776,435.103 607.671,431.1 609.462,427.381 C 611.253,423.662 613.828,420.902 617.191,419.097 C 620.553,417.294 624.425,416.392 628.808,416.392 C 631.989,416.392 634.865,416.91 637.436,417.944 C 640.007,418.977 642.023,420.417 643.484,422.262 C 644.945,424.11 646.055,426.518 646.816,429.487 L 641.561,430.928 C 640.899,428.688 640.079,426.926 639.098,425.643 C 638.116,424.363 636.715,423.338 634.893,422.567 C 633.072,421.796 631.048,421.411 628.826,421.411 C 626.164,421.411 623.861,421.817 621.919,422.63 C 619.978,423.442 618.41,424.51 617.219,425.833 C 616.027,427.156 615.101,428.608 614.441,430.192 C 613.32,432.921 612.759,435.877 612.759,439.065 C 612.759,442.995 613.435,446.282 614.785,448.928 C 616.137,451.574 618.103,453.54 620.687,454.824 C 623.269,456.106 626.013,456.749 628.916,456.749 C 631.438,456.749 633.901,456.264 636.305,455.29 C 638.706,454.317 640.529,453.279 641.77,452.175 L 641.77,443.962 L 628.843,443.962 L 628.843,443.963 z "
   id="path90" />
	</g>
</svg>